<svg role="img" viewBox="0 0 24 24" xmlns="http://www.w3.org/2000/svg">
  <!-- Created by github.com/AlexTamayo -->
  <title>Blender</title>
  <path fill="#e6e7e8"
    d="M16.533,9.708a4.067,4.067,0,0,0-5.043.008,3.491,3.491,0,0,0-.856,1.017,3.179,3.179,0,0,0-.209,2.612,3.348,3.348,0,0,0,.769,1.2,4.036,4.036,0,0,0,5.635-.008h0a3.389,3.389,0,0,0,.768-1.207,3.149,3.149,0,0,0-.21-2.611A3.476,3.476,0,0,0,16.533,9.708Zm-.679,3.937a2.578,2.578,0,0,1-3.526,0,2.065,2.065,0,0,1-.642-1.6h0a2.1,2.1,0,0,1,.765-1.489,2.592,2.592,0,0,1,3.283,0,2.1,2.1,0,0,1,.763,1.488A2.069,2.069,0,0,1,15.854,13.645Z" />
  <path fill="#e6e7e8"
    d="M19.75,0H4.25A4.3,4.3,0,0,0,0,4.359V19.641A4.3,4.3,0,0,0,4.25,24h15.5A4.3,4.3,0,0,0,24,19.641V4.359A4.3,4.3,0,0,0,19.75,0Zm.226,14.267a5.516,5.516,0,0,1-1.181,2.05,6.174,6.174,0,0,1-2.067,1.492,6.772,6.772,0,0,1-5.432.009,6.114,6.114,0,0,1-2.068-1.486,5.455,5.455,0,0,1-1.183-2.046,4.464,4.464,0,0,1-.19-1.038h0a5.23,5.23,0,0,1,.047-.617L4.411,15.488a1.29,1.29,0,0,1-1.816,0,1.256,1.256,0,0,1,.417-1.716l.026-.019,6.4-4.912-3.585.008v0c-.609,0-1-.412-.891-.9a1.291,1.291,0,0,1,1.258-.87h.01L13.3,7.061l-2.32-1.887h0a.627.627,0,0,1,.092-1.05,1.236,1.236,0,0,1,1.38,0l.015.011,5.566,4.274h0a5.763,5.763,0,0,1,1.375,1.516,5.282,5.282,0,0,1,.754,2.063A5.172,5.172,0,0,1,19.976,14.267Z" />
</svg>