<svg role="img" viewBox="0 0 185 185" xmlns="http://www.w3.org/2000/svg">
  <!-- Created by github.com/AlexTamayo -->
  <title>Bootstrap</title>
  <path fill="#e6e7e8"
    d="M151.075,0H32.51C14.534,0,0,14.907,0,33.345v116.9c0,18.438,14.534,33.345,32.51,33.345H151.075c17.976,0,32.51-14.907,32.51-33.345V33.345C183.585,14.907,169.051,0,151.075,0Zm18.094,95.722c-7.274.693-11.716,6.087-14.35,14.62-2.626,8.507-2.99,18.94-2.71,26.994.292,8.385-6.24,16.116-15.07,16.116H46.558c-8.83,0-15.362-7.731-15.07-16.116.28-8.054-.084-18.487-2.71-26.994-2.634-8.533-7.087-13.927-14.362-14.62V87.863c7.275-.693,11.728-6.087,14.362-14.62,2.626-8.507,2.99-18.94,2.709-26.994-.291-8.384,6.241-16.116,15.071-16.116h90.481c8.83,0,15.362,7.732,15.07,16.116-.28,8.054.084,18.487,2.71,26.994,2.634,8.533,7.076,13.927,14.35,14.62Z" />
  <path fill="#e6e7e8"
    d="M104.521,89.737a15.282,15.282,0,0,0,10.732-14.389c0-10.244-7.946-16.863-20.244-16.863H67.687v66.589H95.149c14.659,0,23.41-7.12,23.41-19.044C118.559,97.7,112.987,91.334,104.521,89.737ZM79.119,67.8H92.5c7.3,0,11.328,3.18,11.328,8.954,0,6.214-4.8,9.636-13.517,9.636H79.119Zm13.888,47.953H79.119V95.166H92.4c9.617,0,14.494,3.441,14.494,10.227C106.9,113.958,99.343,115.756,93.007,115.756Z" />
</svg>