<svg role="img" viewBox="0 0 24 24" xmlns="http://www.w3.org/2000/svg">
  <!-- Created by github.com/AlexTamayo -->
  <title>Bootstraps</title>
  <path fill="#e6e7e8"
    d="M6.575,10.641a.217.217,0,0,0-.122.036.039.039,0,0,0-.012.034.165.165,0,0,0,.045.1C6.515,10.754,6.544,10.7,6.575,10.641Z" />
  <path fill="#e6e7e8"
    d="M19.75,0H4.25A4.3,4.3,0,0,0,0,4.359V19.641A4.3,4.3,0,0,0,4.25,24h15.5A4.3,4.3,0,0,0,24,19.641V4.359A4.3,4.3,0,0,0,19.75,0Zm.8,12.145a3.269,3.269,0,0,1-2.131,1.923L11,16.332a6.463,6.463,0,0,0-2.072.841l-.143.118-.055-.178A1.551,1.551,0,0,1,8.8,15.859a2.449,2.449,0,0,1,1.656-1L18.63,12.81a2.673,2.673,0,0,0,.986-.438,1.461,1.461,0,0,1-.986-.4,2.688,2.688,0,0,1-1.714,1.093.64.64,0,0,1-.7-.7,2.715,2.715,0,0,1,.316-1.094l.883-1.748a1.585,1.585,0,0,0-.5-.085,1.935,1.935,0,0,0-.889.228,1.729,1.729,0,0,1,.268.985c0,1.573-1.29,3.052-2.289,3.052-.54,0-.889-.412-.889-1.051a4.2,4.2,0,0,1,1.528-2.943,2.13,2.13,0,0,0-1.293.7,5.7,5.7,0,0,1-1.612,3.368,2.235,2.235,0,0,1-1.492.793c-.512,0-.818-.412-.818-1.1a5.562,5.562,0,0,1,1.452-3.216.933.933,0,0,0-.809.367,3.843,3.843,0,0,1-1.275.828,3.451,3.451,0,0,1,.422,1.73,3.262,3.262,0,0,1-3.17,3.411H6.024a2.753,2.753,0,0,1-1.387-.376,2.4,2.4,0,0,1-1.412.5H3.176c-.709,0-1.174-.374-1.188-.962A.769.769,0,0,1,2.2,15.19a.76.76,0,0,1,.538-.229.815.815,0,0,1,.528.188.612.612,0,0,1,.188.43A.65.65,0,0,1,3.2,16.1a1.287,1.287,0,0,0,.808-.43,1.993,1.993,0,0,1-.468-1.257A1.326,1.326,0,0,1,4.8,13.01a.833.833,0,0,1,.578.216l.157-.358c.211-.484.429-.983.67-1.488a.8.8,0,0,1-.363-.638c0-.407.328-.66.857-.66a1.394,1.394,0,0,1,.172.01A8.843,8.843,0,0,1,8.853,7.624a1.982,1.982,0,0,0-.607-.087c-1.437,0-2.794,1.024-2.794,2.106a.507.507,0,0,0,.388.543l.154.031-.066.142a1.039,1.039,0,0,1-.919.511c-.426,0-.883-.273-.883-1.039,0-1.54,2.005-2.891,4.291-2.891A4.124,4.124,0,0,1,9.6,7.093a5.545,5.545,0,0,1,.728-.362l.056-.022.054.031a1.389,1.389,0,0,1,.2.144l.14.116-.159.089a3.706,3.706,0,0,0-.419.272,1.567,1.567,0,0,1,.731,1.382,2.373,2.373,0,0,1-.179.873.945.945,0,0,1,.649.135,1.852,1.852,0,0,1,1.127-.469.729.729,0,0,1,.674.415,2.644,2.644,0,0,1,1.6-.634,1.582,1.582,0,0,1,.635.126,3.316,3.316,0,0,1,1.422-.328A2.343,2.343,0,0,1,17.683,9L18,8.372l-2.347.276L16.2,7.575,18.438,7.5l.278-.553.91-.108-.286.633,1.608-.055-.308.642-1.655.194L17.478,11.59a1.6,1.6,0,0,0-.173.558c0,.051.008.051.042.051.113,0,.388-.1.963-.742a1.483,1.483,0,0,1-.074-.481,1.179,1.179,0,0,1,1.185-1.224,1.3,1.3,0,0,1,.177.012c.192-.28.381-.569.564-.853a.766.766,0,0,1-.007-.117.622.622,0,0,1,.52-.678.294.294,0,0,1,.3.314,1.062,1.062,0,0,1-.241.605,3.088,3.088,0,0,0,.292.45,2.026,2.026,0,0,1,.508,1.2A1.665,1.665,0,0,1,20.553,12.145Z" />
  <path fill="#e6e7e8"
    d="M7.922,10.49a2.747,2.747,0,0,1,.431.359A2.317,2.317,0,0,0,9.705,8.808a1.259,1.259,0,0,0-.234-.766A10.6,10.6,0,0,0,7.922,10.49Z" />
  <path fill="#e6e7e8" d="M7.6,10.883l-.146.315a2.516,2.516,0,0,0,.405-.049A1.861,1.861,0,0,0,7.6,10.883Z" />
  <path fill="#e6e7e8"
    d="M4.222,14.294a.63.63,0,0,0-.012.114,1.045,1.045,0,0,0,.26.655c.115-.187.223-.377.322-.57a.535.535,0,0,1-.07,0A.729.729,0,0,1,4.222,14.294Z" />
  <path fill="#e6e7e8"
    d="M12.364,10.1c-.6,0-2.025,2.623-2.025,3.471,0,.069.01.183.073.183.6,0,2.023-2.62,2.024-3.468C12.436,10.1,12.381,10.1,12.364,10.1Z" />
  <path fill="#e6e7e8"
    d="M7.352,11.718l-.177.395a15.782,15.782,0,0,1-1.843,3.416,1.691,1.691,0,0,0,.275.022h.011c1.674,0,2.565-1.719,2.565-2.959a2.423,2.423,0,0,0-.172-.93A4.157,4.157,0,0,1,7.352,11.718Z" />
  <path fill="#e6e7e8"
    d="M19.033,11.5a.88.88,0,0,0,1.073.074,1.625,1.625,0,0,0,.023-.279,1.145,1.145,0,0,0-.317-.851C19.542,10.841,19.281,11.2,19.033,11.5Z" />
  <path fill="#e6e7e8"
    d="M20.13,9.965a1.394,1.394,0,0,1,.523.7,1.7,1.7,0,0,0,.025-.295,1.808,1.808,0,0,0-.267-.847Q20.275,9.741,20.13,9.965Z" />
  <path fill="#e6e7e8"
    d="M14.029,12.764c0,.185.05.187.071.187s.157-.017.381-.242a3.561,3.561,0,0,0,.958-2.154,1.231,1.231,0,0,0-.066-.409A4.489,4.489,0,0,0,14.029,12.764Z" />
  <path fill="#e6e7e8" d="M18.826,10.835c.119-.154.243-.32.375-.5A.61.61,0,0,0,18.826,10.835Z" />
</svg>