<svg role="img" viewBox="0 0 24 24" xmlns="http://www.w3.org/2000/svg">
  <!-- Created by Alex Tamayo -->
  <title>C++</title>
  <path fill="#e6e7e8"
    d="M19.75,0H4.25A4.3,4.3,0,0,0,0,4.359V19.641A4.3,4.3,0,0,0,4.25,24h15.5A4.3,4.3,0,0,0,24,19.641V4.359A4.3,4.3,0,0,0,19.75,0Zm0,16.47a1.259,1.259,0,0,1-.507.54q-1,.579-2,1.155-2.224,1.285-4.45,2.573a1.6,1.6,0,0,1-1.138.184,1.227,1.227,0,0,1-.385-.151L6.457,17.993q-.837-.484-1.674-.966a1.362,1.362,0,0,1-.534-.551,1.344,1.344,0,0,1-.2-.726c0-.806,0-1.612,0-2.417,0-1.679,0-3.357,0-5.036A1.535,1.535,0,0,1,4.476,7.23a1.184,1.184,0,0,1,.3-.23q3.248-1.875,6.5-3.748a1.4,1.4,0,0,1,1.459,0q3.258,1.87,6.508,3.755a1.213,1.213,0,0,1,.507.537,1.273,1.273,0,0,1,.209.64c0,.04,0,.081,0,.121q0,3.708,0,7.416A1.351,1.351,0,0,1,19.749,16.47Z" />
  <path fill="#808285"
    d="M4.249,16.476c.325-.186.652-.371.977-.558q1-.578,2.007-1.159a.644.644,0,0,0,.157-.1.359.359,0,0,1,.092.129,5.3,5.3,0,0,0,8.576.633,3.963,3.963,0,0,0,.526-.758c.053.024.108.044.158.073l1.44.83,1.567.9a1.259,1.259,0,0,1-.507.54q-1,.579-2,1.155-2.226,1.285-4.45,2.573a1.6,1.6,0,0,1-1.138.184,1.227,1.227,0,0,1-.385-.151L6.457,17.993q-.837-.484-1.674-.966A1.355,1.355,0,0,1,4.249,16.476Z" />
  <path fill="#bcbec0"
    d="M19.235,7.005q-3.254-1.88-6.508-3.755a1.4,1.4,0,0,0-1.459,0Q8.016,5.12,4.772,7a1.184,1.184,0,0,0-.3.23A1.535,1.535,0,0,0,4.047,8.3c0,1.679,0,3.357,0,5.036,0,.8,0,1.611,0,2.417a1.344,1.344,0,0,0,.2.726c.325-.186.652-.371.976-.558q1-.578,2.008-1.159a.664.664,0,0,0,.157-.1.361.361,0,0,0-.06-.134,5.059,5.059,0,0,1-.619-2.163,5.2,5.2,0,0,1,2.2-4.657,4.918,4.918,0,0,1,2.42-.956,5.24,5.24,0,0,1,4.048,1.176,5.072,5.072,0,0,1,1.141,1.31.211.211,0,0,1,.054.134l1.646-.954,1.335-.77c.062-.036.125-.069.188-.1A1.219,1.219,0,0,0,19.235,7.005Z" />
  <path fill="#bcbec0"
    d="M9.707,13.323a2.142,2.142,0,0,1-.3-.768,2.651,2.651,0,0,1,4.81-2c.024.037.058.07.053.12-.03.055-.089.073-.138.1l-1.988,1.148c-.039.022-.074.05-.11.075a.269.269,0,0,0-.1.045c-.475.274-.95.55-1.426.822C10.242,13.02,9.981,13.183,9.707,13.323Z" />
  <path fill="#808285"
    d="M9.707,13.323c.274-.14.535-.3.8-.456.476-.272.951-.548,1.426-.822a.269.269,0,0,1,.1-.045.942.942,0,0,0,.258.164c.6.348,1.2.693,1.792,1.038a.661.661,0,0,1,.208.143,2.651,2.651,0,0,1-4.557.04A.478.478,0,0,1,9.707,13.323Z" />
  <path fill="#939598"
    d="M19.953,8.3c0-.04,0-.081,0-.121a1.273,1.273,0,0,0-.209-.64c-.063.034-.126.067-.188.1l-1.335.77-1.646.954Q15.487,10,14.4,10.625c-.041.023-.078.063-.134.05-.029.055-.088.073-.137.1l-1.988,1.148c-.039.022-.074.05-.11.075a.952.952,0,0,0,.257.164q.9.522,1.793,1.038a.661.661,0,0,1,.208.143.329.329,0,0,1,.062.023l2.232,1.3c.053.024.108.044.158.073q.721.414,1.44.83l1.567.9a1.351,1.351,0,0,0,.2-.751Q19.952,12.011,19.953,8.3ZM17.3,12.233c0,.052-.018.072-.07.071-.143,0-.287,0-.43,0-.07,0-.094.023-.092.093,0,.138,0,.277,0,.416,0,.065-.021.085-.085.084-.143,0-.286,0-.429,0-.058,0-.079-.022-.078-.079,0-.139,0-.277,0-.416,0-.093,0-.094-.1-.095-.134,0-.268,0-.4,0-.062,0-.09-.015-.088-.083,0-.138,0-.277,0-.416,0-.068.02-.1.091-.094.139,0,.278,0,.416,0,.066,0,.088-.022.084-.086s0-.143,0-.214,0-.135,0-.2.013-.092.082-.09c.143,0,.286,0,.429,0,.07,0,.082.031.081.089,0,.139,0,.278,0,.417,0,.064.021.087.085.085.138,0,.277,0,.416,0,.072,0,.093.024.091.093C17.3,11.947,17.3,12.09,17.3,12.233Zm2.124.071c-.139,0-.277,0-.416,0-.066,0-.086.025-.085.087,0,.138,0,.277,0,.415,0,.073-.026.095-.094.09s-.143,0-.215,0-.143,0-.214,0c-.054,0-.07-.022-.069-.072,0-.134,0-.268,0-.4,0-.115,0-.116-.121-.116s-.26,0-.389,0c-.056,0-.081-.015-.08-.075,0-.143,0-.287,0-.43,0-.073.031-.089.1-.088.139,0,.278,0,.416,0,.057,0,.08-.018.079-.077,0-.143,0-.286,0-.429,0-.063.019-.087.085-.085.143,0,.286,0,.429,0,.058,0,.079.023.078.08,0,.138,0,.277,0,.415,0,.093,0,.094.1.095.134,0,.268,0,.4,0,.062,0,.09.017.088.083,0,.143,0,.286,0,.429C19.517,12.292,19.485,12.305,19.426,12.3Z" />
</svg>