<svg role="img" viewBox="0 0 24 24" xmlns="http://www.w3.org/2000/svg">
  <!-- Created by Alex Tamayo -->
  <title>C</title>
  <path fill="#808285"
    d="M4,16.438a.1.1,0,0,0,.067-.015l1.561-.891L6.737,14.9a.172.172,0,0,1,.029-.011,6.088,6.088,0,0,0,1.362,1.664,5.946,5.946,0,0,0,4.119,1.426,5.987,5.987,0,0,0,1.131-.153,5.84,5.84,0,0,0,1.451-.549,5.992,5.992,0,0,0,1.79-1.466,6.489,6.489,0,0,0,.58-.833c.023-.011.041,0,.06.012l.252.138,1.281.705.767.422c.144.079.288.156.431.235a.9.9,0,0,1-.381.358L17.27,18.161l-2.579,1.448c-.639.36-1.278.721-1.92,1.078a2.027,2.027,0,0,1-.564.267c-.012,0-.4,0-.417,0a1.048,1.048,0,0,1-.278-.113q-.444-.247-.888-.5L8.5,19.145l-1.854-1.04c-.645-.363-1.292-.724-1.937-1.089a3.078,3.078,0,0,1-.492-.3A.634.634,0,0,1,4,16.438Z" />
  <path fill="#939598"
    d="M19.99,16.491c-.143-.079-.287-.156-.431-.235l-.767-.422-1.281-.7-.252-.138c-.019-.01-.037-.023-.06-.012,0-.032-.027-.035-.045-.046-.081-.046-.164-.09-.246-.135q-1.136-.626-2.273-1.251c-.019-.011-.037-.032-.063-.013-.007-.028-.03-.039-.053-.052l-.745-.409-.991-.545-.879-.483a.19.19,0,0,1-.063-.053c.024-.016.049-.034.074-.049l.6-.341,1.139-.651.894-.511c.019.007.032,0,.047-.013l.227-.13L17.148,8.97a2.223,2.223,0,0,1,.317-.191q.709-.408,1.422-.813L19.9,7.393a.725.725,0,0,1,.2.412c0,.018,0,8.384,0,8.4A.838.838,0,0,1,19.99,16.491Z" />
  <path fill="#bcbec0"
    d="M19.621,7.145q-1.006-.564-2.015-1.126L15.6,4.9,12.621,3.236a1.268,1.268,0,0,0-.477-.19h-.286a1.294,1.294,0,0,0-.507.2L7.612,5.341,4.794,6.92c-.128.072-.256.144-.385.215a.923.923,0,0,0-.517.874q0,3.535,0,7.072c0,.327,0,.654,0,.98A.726.726,0,0,0,4,16.438a.1.1,0,0,0,.067-.015l1.561-.891L6.737,14.9a.145.145,0,0,1,.029-.011,6.116,6.116,0,0,1-.553-1.4,5.975,5.975,0,0,1-.181-1.255,5.99,5.99,0,0,1,4.5-6.022,5.837,5.837,0,0,1,1.255-.18,5.959,5.959,0,0,1,4.328,1.632,6.083,6.083,0,0,1,1.006,1.244.1.1,0,0,1,.027.064,2.223,2.223,0,0,1,.317-.191q.709-.408,1.422-.813c.337-.192.676-.382,1.013-.573A.765.765,0,0,0,19.621,7.145Z" />
  <path fill="#bcbec0"
    d="M9.365,13.392a1.755,1.755,0,0,1-.164-.358,2.981,2.981,0,0,1,.528-2.961,2.961,2.961,0,0,1,1.349-.909,3,3,0,0,1,2.755.476,2.826,2.826,0,0,1,.717.8l-.894.511-1.139.651-.6.341c-.025.015-.05.033-.074.049q-1.048.6-2.095,1.192A3.127,3.127,0,0,1,9.365,13.392Z" />
  <path fill="#808285"
    d="M9.365,13.392a3.127,3.127,0,0,0,.381-.208q1.048-.594,2.095-1.192a.19.19,0,0,0,.063.053l.879.483.991.545.745.409c.023.013.046.024.053.052a2.66,2.66,0,0,1-.461.594,2.945,2.945,0,0,1-1.34.769,2.905,2.905,0,0,1-1.305.047,2.962,2.962,0,0,1-1.928-1.255A1.4,1.4,0,0,1,9.365,13.392Z" />
  <path fill="#e6e7e8"
    d="M19.75,0H4.25A4.3,4.3,0,0,0,0,4.359V19.641A4.3,4.3,0,0,0,4.25,24h15.5A4.3,4.3,0,0,0,24,19.641V4.359A4.3,4.3,0,0,0,19.75,0ZM20.1,16.208a.838.838,0,0,1-.114.283.9.9,0,0,1-.381.358q-1.17.656-2.339,1.312l-2.579,1.448c-.64.36-1.278.721-1.92,1.078a2.027,2.027,0,0,1-.564.267c-.012,0-.4,0-.417,0a1.035,1.035,0,0,1-.278-.113q-.444-.247-.888-.5L8.5,19.145l-1.853-1.04c-.646-.363-1.293-.724-1.937-1.089a3.044,3.044,0,0,1-.493-.3A.644.644,0,0,1,4,16.438a.744.744,0,0,1-.106-.377c0-.326,0-.653,0-.98q0-3.535,0-7.072a.924.924,0,0,1,.516-.874c.13-.071.258-.143.386-.215L7.612,5.341l3.739-2.093a1.3,1.3,0,0,1,.506-.2c.013,0,.275,0,.287,0a1.25,1.25,0,0,1,.477.189Q14.108,4.069,15.6,4.9l2.01,1.121q1.008.563,2.015,1.126a.765.765,0,0,1,.279.248.72.72,0,0,1,.205.412C20.109,7.823,20.109,16.189,20.1,16.208Z" />
</svg>