<svg role="img" viewBox="0 0 185 185" xmlns="http://www.w3.org/2000/svg">
  <!-- Created by github.com/AlexTamayo -->
  <title>C Flat</title>
  <path fill="#e6e7e8"
    d="M151.076,0H32.51C14.534,0,0,14.907,0,33.345v116.9c0,18.438,14.534,33.345,32.51,33.345H151.076c17.976,0,32.509-14.907,32.509-33.345V33.345C183.585,14.907,169.052,0,151.076,0Zm2.743,121.457A8.779,8.779,0,0,1,152.548,126h0a8.777,8.777,0,0,1-3.214,3.124l-53.259,29.9a8.79,8.79,0,0,1-8.605,0l-53.259-29.9a8.779,8.779,0,0,1-3.284-3.247h0l-.007-.015c-.009-.016-.021-.03-.03-.046l.006,0a8.769,8.769,0,0,1-1.13-4.291V62.128a8.786,8.786,0,0,1,4.484-7.662l53.26-29.9a8.788,8.788,0,0,1,8.6,0l53.26,29.905a8.78,8.78,0,0,1,2.747,2.433h0a8.767,8.767,0,0,1,1.7,5.168Z" />
  <path fill="#e6e7e8"
    d="M92.017,114.652a22.86,22.86,0,1,1,19.57-34.678l19.892-11.3a45.741,45.741,0,1,0,.268,45.774l-20-11.107A22.845,22.845,0,0,1,92.017,114.652Z" />
</svg>