<svg role="img" viewBox="0 0 185 185" xmlns="http://www.w3.org/2000/svg">
  <!-- Created by github.com/AlexTamayo -->
  <title>C Shaded</title>
  <path fill="#939598"
    d="M152.569,126.023a8.767,8.767,0,0,0,1.271-4.538V62.094a8.769,8.769,0,0,0-1.7-5.168L90.856,91.744Z" />
  <path fill="#bcbec0"
    d="M46.28,91.8a45.737,45.737,0,0,1,85.2-23.124l20.664-11.747a9.085,9.085,0,0,0-2.785-2.5L96.1,24.526a8.783,8.783,0,0,0-8.6,0l-53.26,29.9a8.787,8.787,0,0,0-4.485,7.662v59.39a8.768,8.768,0,0,0,1.162,4.355l21.046-11.963A45.532,45.532,0,0,1,46.28,91.8Z" />
  <path fill="#bcbec0" d="M111.589,79.978a22.861,22.861,0,0,0-39.735,22.588l41.2-23.417Z" />
  <path fill="#808285"
    d="M131.745,114.455a45.737,45.737,0,0,1-79.791-.583L30.912,125.84a8.773,8.773,0,0,0,3.323,3.307L87.5,159.052a8.788,8.788,0,0,0,8.6,0l53.259-29.9a8.774,8.774,0,0,0,3.214-3.123Z" />
  <path fill="#808285"
    d="M92.017,114.656a22.844,22.844,0,0,0,19.726-11.311l4.066,2.258L90.859,91.744,71.848,102.557A22.849,22.849,0,0,0,92.017,114.656Z" />
  <path fill="#e6e7e8"
    d="M151.075,0H32.51C14.534,0,0,14.907,0,33.345v116.9c0,18.438,14.534,33.345,32.51,33.345H151.075c17.977,0,32.51-14.907,32.51-33.345V33.345C183.585,14.907,169.052,0,151.075,0Zm2.744,121.457A8.77,8.77,0,0,1,152.548,126h0a8.777,8.777,0,0,1-3.214,3.124l-53.259,29.9a8.79,8.79,0,0,1-8.605,0l-53.259-29.9a8.779,8.779,0,0,1-3.284-3.247h0l-.007-.015c-.009-.016-.021-.03-.03-.046l.006,0a8.769,8.769,0,0,1-1.13-4.291V62.128a8.786,8.786,0,0,1,4.484-7.662l53.26-29.9a8.788,8.788,0,0,1,8.6,0l53.26,29.905a8.78,8.78,0,0,1,2.747,2.433h0a8.774,8.774,0,0,1,1.7,5.168Z" />
</svg>