<svg role="img" viewBox="0 0 24 24" xmlns="http://www.w3.org/2000/svg">
  <!-- Created by github.com/AlexTamayo -->
  <title>Chai</title>
  <path fill="#e6e7e8"
    d="M12.271,3.613a.381.381,0,0,0-.191-.052.389.389,0,0,0-.19.051L4.913,7.641a.383.383,0,0,0-.191.33v8.057a.384.384,0,0,0,.191.33l6.977,4.027a.384.384,0,0,0,.381,0l6.976-4.027a.384.384,0,0,0,.192-.331V7.971a.385.385,0,0,0-.191-.331Zm2.817,6.873a3.218,3.218,0,0,1-.459.793,3.291,3.291,0,0,1-.664.638,2.6,2.6,0,0,1-.8.4l-.222.066-.395-.658.289-.144a1.376,1.376,0,0,0,.328-.23,1.576,1.576,0,0,0,.26-.322,1.637,1.637,0,0,0,.168-.386,1.41,1.41,0,0,0,.058-.4,1.44,1.44,0,0,0-.068-.448,1.011,1.011,0,0,0-.187-.342.834.834,0,0,0-.294-.219,1.251,1.251,0,0,0-.973.035,1.715,1.715,0,0,0-.475.333,2.319,2.319,0,0,0-.384.5,3.526,3.526,0,0,0-.282.617,4.2,4.2,0,0,0-.172.661,3.61,3.61,0,0,0-.058.622,3.146,3.146,0,0,0,.062.605,3.571,3.571,0,0,0,.182.623,3.255,3.255,0,0,0,.293.573,2.28,2.28,0,0,0,.391.458,1.776,1.776,0,0,0,.478.3,1.476,1.476,0,0,0,.955.052,2.218,2.218,0,0,0,.4-.159,2.248,2.248,0,0,0,.363-.238,2.859,2.859,0,0,0,.327-.3l.207-.226.584.562-.161.212a4.259,4.259,0,0,1-.582.622,4.622,4.622,0,0,1-.721.525,3.986,3.986,0,0,1-.821.37,2.88,2.88,0,0,1-.876.141,2.241,2.241,0,0,1-.823-.153,2.64,2.64,0,0,1-.691-.4,3.057,3.057,0,0,1-.554-.586,3.858,3.858,0,0,1-.4-.7,4.055,4.055,0,0,1-.253-.762,3.613,3.613,0,0,1-.088-.775,3.729,3.729,0,0,1,.183-1.124A5.305,5.305,0,0,1,9.7,10.525a6.252,6.252,0,0,1,.733-.994,5.708,5.708,0,0,1,.912-.82h0a4.683,4.683,0,0,1,1.035-.561,2.682,2.682,0,0,1,1.792-.108,1.661,1.661,0,0,1,.567.319,1.551,1.551,0,0,1,.387.527,1.7,1.7,0,0,1,.14.7A2.386,2.386,0,0,1,15.088,10.486Z" />
  <path fill="#e6e7e8"
    d="M19.75,0H4.25A4.3,4.3,0,0,0,0,4.359V19.641A4.3,4.3,0,0,0,4.25,24h15.5A4.3,4.3,0,0,0,24,19.641V4.359A4.3,4.3,0,0,0,19.75,0Zm.976,16.212a1.35,1.35,0,0,1-.675,1.168l-7.3,4.212a1.351,1.351,0,0,1-1.349,0L4.11,17.38a1.349,1.349,0,0,1-.674-1.168V7.788A1.35,1.35,0,0,1,4.11,6.619l7.3-4.213a1.364,1.364,0,0,1,1.348,0l7.3,4.213a1.351,1.351,0,0,1,.675,1.169Z" />
</svg>