<svg role="img" viewBox="0 0 185 185" xmlns="http://www.w3.org/2000/svg">
  <!-- Created by github.com/AlexTamayo -->
  <title>Cpp Shaded</title>
  <path fill="#e6e7e8"
    d="M151.075,0H32.51C14.534,0,0,14.907,0,33.345v116.9c0,18.438,14.534,33.345,32.51,33.345H151.075c17.976,0,32.51-14.907,32.51-33.345V33.345C183.585,14.907,169.051,0,151.075,0Zm2.744,121.457A8.779,8.779,0,0,1,152.548,126h0a8.777,8.777,0,0,1-3.214,3.124l-53.259,29.9a8.79,8.79,0,0,1-8.605,0l-53.259-29.9a8.779,8.779,0,0,1-3.284-3.247h0l-.007-.015c-.009-.016-.021-.03-.03-.046l.006,0a8.769,8.769,0,0,1-1.13-4.291V62.128a8.786,8.786,0,0,1,4.484-7.662l53.26-29.9a8.788,8.788,0,0,1,8.6,0l53.26,29.905a8.78,8.78,0,0,1,2.747,2.433h0a8.774,8.774,0,0,1,1.7,5.168Z" />
  <path fill="#939598"
    d="M152.141,56.93,90.853,91.748l61.714,34.279a8.777,8.777,0,0,0,1.271-4.538V62.1A8.776,8.776,0,0,0,152.141,56.93ZM132.265,93.3a.4.4,0,0,1-.4.4h-3.808a.4.4,0,0,0-.4.405V97.9a.405.405,0,0,1-.405.405h-3.857a.4.4,0,0,1-.4-.405V94.105a.405.405,0,0,0-.405-.405h-3.792a.405.405,0,0,1-.405-.4V89.439a.405.405,0,0,1,.405-.4h3.792a.405.405,0,0,0,.405-.4V84.824a.4.4,0,0,1,.4-.4h3.857a.405.405,0,0,1,.405.4V88.63a.4.4,0,0,0,.4.4h3.808a.4.4,0,0,1,.4.4Zm16.211,0a.4.4,0,0,1-.4.4h-3.808a.405.405,0,0,0-.405.405V97.9a.4.4,0,0,1-.4.405H139.6a.405.405,0,0,1-.405-.405V94.105a.4.4,0,0,0-.4-.405H135a.405.405,0,0,1-.405-.4V89.439a.405.405,0,0,1,.405-.4h3.792a.4.4,0,0,0,.4-.4V84.824a.405.405,0,0,1,.405-.4h3.857a.4.4,0,0,1,.4.4V88.63a.405.405,0,0,0,.405.4h3.808a.4.4,0,0,1,.4.4Z" />
  <path fill="#bcbec0"
    d="M46.277,91.8a45.737,45.737,0,0,1,85.2-23.124L152.141,56.93a9.1,9.1,0,0,0-2.785-2.5L96.1,24.53a8.785,8.785,0,0,0-8.6,0l-53.259,29.9A8.79,8.79,0,0,0,29.748,62.1v59.39a8.768,8.768,0,0,0,1.162,4.355l21.046-11.963A45.521,45.521,0,0,1,46.277,91.8Z" />
  <path fill="#bcbec0" d="M111.587,79.982A22.861,22.861,0,0,0,71.852,102.57l41.195-23.417Z" />
  <path fill="#808285"
    d="M92.017,114.659a22.844,22.844,0,0,0,19.725-11.31l-20.885-11.6L71.847,102.56A22.854,22.854,0,0,0,92.017,114.659Z" />
  <path fill="#808285"
    d="M131.744,114.459a45.737,45.737,0,0,1-79.79-.584L30.91,125.844a8.766,8.766,0,0,0,3.323,3.307l53.259,29.905a8.79,8.79,0,0,0,8.6,0l53.259-29.9a8.782,8.782,0,0,0,3.214-3.123Z" />
</svg>