<svg role="img" viewBox="0 0 185 185" xmlns="http://www.w3.org/2000/svg">
  <!-- Created by github.com/AlexTamayo -->
  <title>Csharp Shaded</title>
  <path fill="#e6e7e8"
    d="M151.075,0H32.51C14.534,0,0,14.907,0,33.345v116.9c0,18.438,14.534,33.345,32.51,33.345H151.075c17.977,0,32.51-14.907,32.51-33.345V33.345C183.585,14.907,169.052,0,151.075,0Zm2.744,121.457A8.779,8.779,0,0,1,152.548,126h0a8.777,8.777,0,0,1-3.214,3.124L96.078,159.025a8.79,8.79,0,0,1-8.605,0l-53.259-29.9a8.779,8.779,0,0,1-3.284-3.247h0l-.007-.015c-.009-.016-.021-.03-.03-.046l.006,0a8.769,8.769,0,0,1-1.13-4.291V62.128a8.786,8.786,0,0,1,4.484-7.662l53.26-29.9a8.788,8.788,0,0,1,8.6,0l53.26,29.905a8.78,8.78,0,0,1,2.747,2.433h0a8.776,8.776,0,0,1,1.7,5.168Z" />
  <path fill="#bcbec0"
    d="M46.282,91.8a45.737,45.737,0,0,1,85.2-23.124l20.665-11.747a9.1,9.1,0,0,0-2.786-2.5L96.1,24.526a8.79,8.79,0,0,0-8.605,0l-53.259,29.9a8.788,8.788,0,0,0-4.485,7.662v59.39a8.78,8.78,0,0,0,1.162,4.356l21.047-11.963A45.524,45.524,0,0,1,46.282,91.8Z" />
  <path fill="#bcbec0" d="M111.591,79.979a22.861,22.861,0,0,0-39.735,22.587l41.065-23.342Z" />
  <path fill="#808285"
    d="M92.019,114.658a22.843,22.843,0,0,0,19.725-11.311l8.014,4.449-28.9-16.052L71.849,102.558A22.851,22.851,0,0,0,92.019,114.658Z" />
  <path fill="#808285"
    d="M131.747,114.455a45.736,45.736,0,0,1-79.791-.582L30.914,125.841a8.787,8.787,0,0,0,3.323,3.307l53.26,29.9a8.783,8.783,0,0,0,8.6,0l53.259-29.9a8.777,8.777,0,0,0,3.214-3.124Z" />
  <path fill="#939598"
    d="M152.146,56.927,90.858,91.744l61.713,34.28a8.773,8.773,0,0,0,1.271-4.539V62.1A8.775,8.775,0,0,0,152.146,56.927ZM142.352,88.45a.374.374,0,0,1-.374.374h-3.089a.373.373,0,0,0-.373.373v4.557a.373.373,0,0,0,.373.373h3.089a.374.374,0,0,1,.374.374v3.842a.374.374,0,0,1-.374.373h-3.089a.373.373,0,0,0-.373.373v2.989a.373.373,0,0,1-.374.374H134.3a.373.373,0,0,1-.373-.374V99.089a.373.373,0,0,0-.373-.373H129a.373.373,0,0,0-.374.373v2.989a.373.373,0,0,1-.373.374h-3.842a.373.373,0,0,1-.373-.374V99.089a.374.374,0,0,0-.374-.373h-2.889a.373.373,0,0,1-.373-.373V94.5a.373.373,0,0,1,.373-.374h2.889a.374.374,0,0,0,.374-.373V89.2a.374.374,0,0,0-.374-.373h-2.889a.373.373,0,0,1-.373-.374V84.608a.373.373,0,0,1,.373-.373h2.889a.374.374,0,0,0,.374-.374V80.873a.373.373,0,0,1,.373-.374h3.842a.373.373,0,0,1,.373.374v2.988a.373.373,0,0,0,.374.374h4.557a.373.373,0,0,0,.373-.374V80.873a.373.373,0,0,1,.373-.374h3.842a.373.373,0,0,1,.374.374v2.988a.373.373,0,0,0,.373.374h3.089a.374.374,0,0,1,.374.373Z" />
  <path fill="#939598"
    d="M129,88.824h4.557a.374.374,0,0,1,.374.374v4.557a.373.373,0,0,1-.373.373H129a.373.373,0,0,1-.373-.373V89.2A.373.373,0,0,1,129,88.824Z" />
</svg>