<svg role="img" viewBox="0 0 24 24" xmlns="http://www.w3.org/2000/svg">
  <!-- Created by github.com/AlexTamayo -->
  <title>C#</title>
  <path fill="#808285"
    d="M4,16.438a.1.1,0,0,0,.068-.015l1.561-.891L6.733,14.9a.145.145,0,0,1,.029-.011,6.1,6.1,0,0,0,1.361,1.664,5.993,5.993,0,0,0,5.251,1.273,5.84,5.84,0,0,0,1.451-.549,5.992,5.992,0,0,0,1.79-1.466,6.489,6.489,0,0,0,.58-.833c.023-.011.041,0,.06.012l.252.138,1.281.705.767.422c.144.079.288.156.431.235a.9.9,0,0,1-.381.358l-2.339,1.312-2.579,1.448c-.64.36-1.279.721-1.92,1.078a2.033,2.033,0,0,1-.565.267c-.011,0-.4,0-.416,0a1.035,1.035,0,0,1-.278-.113q-.444-.247-.888-.5L8.493,19.145l-1.854-1.04c-.646-.363-1.292-.724-1.937-1.089a3.035,3.035,0,0,1-.492-.3A.644.644,0,0,1,4,16.438Z" />
  <path fill="#bcbec0"
    d="M19.617,7.145Q18.611,6.581,17.6,6.019L15.592,4.9,12.617,3.236a1.268,1.268,0,0,0-.477-.19h-.286a1.292,1.292,0,0,0-.507.2Q9.478,4.3,7.608,5.341L4.79,6.92l-.385.215a.923.923,0,0,0-.517.874q0,3.535,0,7.072c0,.327,0,.653,0,.98A.725.725,0,0,0,4,16.438a.1.1,0,0,0,.067-.015l1.562-.891L6.733,14.9a.145.145,0,0,1,.029-.011,6.116,6.116,0,0,1-.553-1.4A5.989,5.989,0,0,1,10.528,6.21a5.837,5.837,0,0,1,1.255-.18,5.959,5.959,0,0,1,4.328,1.632,6.083,6.083,0,0,1,1.006,1.244.1.1,0,0,1,.027.063,2.424,2.424,0,0,1,.317-.191q.71-.407,1.422-.812c.337-.192.676-.382,1.013-.573A.773.773,0,0,0,19.617,7.145Z" />
  <path fill="#bcbec0"
    d="M9.361,13.392a1.755,1.755,0,0,1-.164-.358A2.989,2.989,0,0,1,13.829,9.64a2.826,2.826,0,0,1,.717.8l-.895.511c-.379.217-.759.435-1.139.651l-.6.341c-.026.015-.05.033-.074.049q-1.049.6-2.095,1.192A3.127,3.127,0,0,1,9.361,13.392Z" />
  <path fill="#808285"
    d="M9.361,13.392a3.127,3.127,0,0,0,.381-.208q1.049-.594,2.095-1.192a.19.19,0,0,0,.063.053l.879.483.991.545.745.409c.023.013.046.024.053.052a2.66,2.66,0,0,1-.461.594,2.945,2.945,0,0,1-1.34.769,2.906,2.906,0,0,1-1.3.047,2.962,2.962,0,0,1-1.928-1.255A1.4,1.4,0,0,1,9.361,13.392Z" />
  <path fill="#939598"
    d="M20.1,7.805a.72.72,0,0,0-.2-.412c-.337.191-.676.381-1.013.573q-.712.405-1.422.812a2.424,2.424,0,0,0-.317.191L14.82,10.3l-.227.13c-.015.008-.028.02-.047.013l-.895.511c-.379.217-.759.435-1.139.651l-.6.341c-.026.015-.05.033-.074.049a.19.19,0,0,0,.063.053l.879.483.991.545.745.409c.023.013.046.024.053.052.025-.019.044,0,.063.013q1.137.624,2.273,1.251c.082.045.165.089.246.135.018.011.047.014.045.046.023-.011.041,0,.06.012l.252.138,1.281.705.767.422c.143.079.288.156.431.235a.838.838,0,0,0,.114-.283C20.105,16.189,20.105,7.823,20.1,7.805Zm-2.117,4.571c0,.046.014.056.058.056.246,0,.491,0,.737,0,.047,0,.063.011.061.06,0,.105,0,.209,0,.314,0,.05-.017.06-.063.059-.246,0-.491,0-.737,0-.045,0-.057.012-.057.057,0,.245,0,.491,0,.737,0,.046-.009.064-.059.062-.105,0-.209,0-.314,0-.05,0-.06-.016-.059-.062,0-.246,0-.492,0-.737,0-.045-.012-.057-.057-.057q-.372,0-.743,0c-.043,0-.053.014-.053.054,0,.246,0,.492,0,.737,0,.05-.012.067-.063.065-.1,0-.2,0-.3,0-.053,0-.07-.012-.069-.066,0-.244,0-.487,0-.731,0-.049-.014-.059-.06-.059-.246,0-.492,0-.737,0-.044,0-.06-.011-.059-.057,0-.106,0-.213,0-.32,0-.047.017-.056.06-.056.245,0,.491,0,.736,0,.048,0,.061-.012.06-.06q0-.367,0-.737c0-.046-.014-.056-.057-.055-.246,0-.492,0-.737,0-.048,0-.063-.012-.062-.06,0-.105,0-.21,0-.314,0-.05.017-.06.063-.06.245,0,.491,0,.737,0,.044,0,.057-.012.056-.057,0-.246,0-.491,0-.737,0-.046.01-.064.06-.062.1,0,.209,0,.313,0,.051,0,.06.016.06.062,0,.246,0,.491,0,.737,0,.045.012.057.057.057.248,0,.495,0,.743,0,.043,0,.053-.014.052-.055,0-.245,0-.491,0-.736,0-.05.013-.067.064-.065.1,0,.2,0,.308,0,.046,0,.063.01.062.06,0,.124,0,.247,0,.371s0,.248,0,.372c0,.043.014.053.055.052.245,0,.491,0,.736,0,.05,0,.068.012.066.064,0,.1-.005.205,0,.307,0,.053-.018.063-.066.063-.244,0-.487,0-.731,0-.047,0-.06.011-.06.06C17.987,11.885,17.987,12.131,17.984,12.376Z" />
  <path fill="#939598"
    d="M17.555,12.009c0,.124,0,.248,0,.371,0,.038-.007.052-.048.052q-.378,0-.755,0c-.043,0-.049-.015-.049-.052q0-.374,0-.749c0-.037.007-.052.049-.051.252,0,.5,0,.755,0,.042,0,.049.015.048.052C17.553,11.758,17.555,11.883,17.555,12.009Z" />
  <path fill="#e6e7e8"
    d="M19.75,0H4.25A4.3,4.3,0,0,0,0,4.359V19.641A4.3,4.3,0,0,0,4.25,24h15.5A4.3,4.3,0,0,0,24,19.641V4.359A4.3,4.3,0,0,0,19.75,0ZM20.1,16.208a.838.838,0,0,1-.114.283.89.89,0,0,1-.381.358L17.27,18.161q-1.29.723-2.578,1.448c-.64.36-1.279.721-1.921,1.078a2.014,2.014,0,0,1-.564.267c-.012,0-.4,0-.417,0a1.048,1.048,0,0,1-.278-.113q-.444-.247-.888-.5L8.5,19.145l-1.854-1.04c-.646-.363-1.293-.724-1.937-1.089a3.044,3.044,0,0,1-.493-.3A.642.642,0,0,1,4,16.438a.725.725,0,0,1-.106-.377c0-.327,0-.653,0-.98q0-3.535,0-7.072a.925.925,0,0,1,.517-.874c.129-.071.257-.143.385-.215L7.612,5.341q1.869-1.047,3.739-2.094a1.292,1.292,0,0,1,.507-.2c.012,0,.274,0,.287,0a1.263,1.263,0,0,1,.477.189Q14.109,4.069,15.6,4.9l2.01,1.121q1.008.563,2.015,1.126a.776.776,0,0,1,.28.248.725.725,0,0,1,.2.412C20.109,7.823,20.109,16.189,20.1,16.208Z" />
</svg>