<svg role="img" viewBox="0 0 185 185" xmlns="http://www.w3.org/2000/svg">
  <!-- Created by github.com/AlexTamayo -->
  <title>Css3 Shaded</title>
  <path fill="#e6e7e8"
    d="M151.076,0H32.51C14.534,0,0,14.907,0,33.345v116.9c0,18.438,14.534,33.345,32.51,33.345H151.076c17.976,0,32.509-14.907,32.509-33.345V33.345C183.585,14.907,169.052,0,151.076,0ZM140.885,146.182,91.832,159.688,42.661,146.21,31.793,23.9h120Z" />
  <polygon fill="#d1d3d4" points="91.831 33.769 140.885 33.769 131.48 138.401 91.831 149.389 91.831 33.769" />
  <polygon fill="#e6e7e8"
    points="54.283 47.826 129.379 47.826 122.774 124.142 91.831 132.819 60.817 124.214 58.878 100.666 73.955 100.522 75.103 112.44 91.831 117.107 108.559 112.44 110.282 93.271 75.103 93.343 73.883 78.051 111.574 78.051 112.867 62.831 55.504 62.831 54.283 47.826" />
  <polygon fill="#fff"
    points="91.831 62.831 112.867 62.831 111.574 78.051 91.831 78.051 91.831 93.309 110.282 93.271 108.559 112.44 91.831 117.107 91.831 132.819 122.774 124.142 129.379 47.826 91.831 47.826 91.831 62.831" />
</svg>