<svg role="img" viewBox="0 0 24 24" xmlns="http://www.w3.org/2000/svg">
  <!-- Created by Alex Tamayo -->
  <title>CSS 3</title>
  <polygon fill="#e6e7e8"
    points="14.848 8.728 14.654 10.791 9.609 10.791 9.792 12.746 14.488 12.746 14.21 15.423 11.999 16.034 9.754 15.418 9.611 13.815 7.628 13.815 7.848 16.744 12 18.038 16.082 16.875 17.007 6.737 17.007 6.737 6.993 6.734 7.155 8.726 14.848 8.728" />
  <path fill="#e6e7e8"
    d="M19.75,0H4.25A4.3,4.3,0,0,0,0,4.359V19.641A4.3,4.3,0,0,0,4.25,24h15.5A4.3,4.3,0,0,0,24,19.641V4.359A4.3,4.3,0,0,0,19.75,0ZM18.526,19.766l-6.543,1.851L5.475,19.765,4.023,3.384H19.977Z" />
</svg>