<svg role="img" viewBox="0 0 185 185" xmlns="http://www.w3.org/2000/svg">
  <!-- Created by github.com/AlexTamayo -->
    <title>Css3 Flat V2</title>
  <path fill="#e6e7e8"
    d="M151.076,0H32.51C14.534,0,0,14.907,0,33.345v116.9c0,18.437,14.534,33.344,32.51,33.344H151.076c17.976,0,32.51-14.907,32.51-33.344V33.345C183.586,14.907,169.052,0,151.076,0ZM140.885,146.182,91.832,159.688,42.661,146.211,31.793,23.9h120Z" />
  <polygon fill="#e6e7e8"
    points="73.883 78.051 75.104 93.343 91.832 93.309 91.832 78.051 111.574 78.051 112.867 62.831 91.832 62.831 91.832 78.051 73.883 78.051" />
  <polygon fill="#e6e7e8" points="91.832 62.831 91.832 47.826 54.283 47.826 55.504 62.831 91.832 62.831" />
  <polygon fill="#e6e7e8"
    points="91.831 117.107 75.104 112.44 73.955 100.523 58.878 100.666 60.817 124.214 91.831 132.819 91.832 132.819 91.832 117.107 108.559 112.44 110.282 93.271 91.832 93.309 91.832 117.107 91.831 117.107" />
  <polygon fill="#e6e7e8"
    points="122.774 124.143 91.832 132.819 91.832 149.389 131.48 138.401 140.885 33.769 91.832 33.769 91.832 47.826 129.379 47.826 122.774 124.143" />
</svg>