<svg role="img" viewBox="0 0 185 185" xmlns="http://www.w3.org/2000/svg">
  <!-- Created by github.com/AlexTamayo -->
  <title>Css3 Flat V1</title>
  <polygon fill="#e6e7e8"
    points="113.575 66.764 112.093 82.547 73.504 82.547 74.899 97.5 110.826 97.5 108.698 117.974 91.787 122.647 74.609 117.939 73.516 105.677 58.348 105.677 60.033 128.08 91.793 137.977 123.018 129.086 130.09 51.537 130.09 51.532 53.495 51.514 54.733 66.752 113.575 66.764" />
  <path fill="#e6e7e8"
    d="M151.075,0H32.51C14.535,0,0,14.908,0,33.345v116.9c0,18.437,14.535,33.344,32.51,33.344H151.075c17.977,0,32.51-14.907,32.51-33.344V33.345C183.585,14.908,169.052,0,151.075,0Zm-9.362,151.2L91.66,165.361,41.884,151.193,30.773,25.885H152.814Z" />
</svg>