<svg role="img" viewBox="0 0 24 24" xmlns="http://www.w3.org/2000/svg">
  <!-- Created by Alex Tamayo -->
  <title>Cypress</title>
  <path fill="#e6e7e8"
    d="M15.581,14.648,13.958,7.924h-2.33l2.8,8.988a4.385,4.385,0,0,1-.406.405,3.822,3.822,0,0,1-1.722.542l.236,1.587a5.078,5.078,0,0,0,2.838-.98,4.875,4.875,0,0,0,1.555-2.4l2.635-8.143H17.3Z" />
  <path fill="#e6e7e8"
    d="M8.958,9.343a2.182,2.182,0,0,1,.812.134,3.746,3.746,0,0,1,.777.44l.946-1.284a4.361,4.361,0,0,0-1.25-.743A3.857,3.857,0,0,0,8.79,7.654a3.758,3.758,0,0,0-2.061.54A3.587,3.587,0,0,0,5.375,9.748,5.345,5.345,0,0,0,4.9,12.012a5.225,5.225,0,0,0,.473,2.265,3.4,3.4,0,0,0,1.352,1.486,4.177,4.177,0,0,0,2.1.507,4.036,4.036,0,0,0,2.669-.946l-.947-1.352a6.6,6.6,0,0,1-.844.439,1.967,1.967,0,0,1-.777.136,1.462,1.462,0,0,1-1.284-.575h0a3.334,3.334,0,0,1-.406-1.961C7.235,10.221,7.81,9.343,8.958,9.343Z" />
  <path fill="#e6e7e8"
    d="M19.75,0H4.25A4.3,4.3,0,0,0,0,4.359V19.641A4.3,4.3,0,0,0,4.25,24h15.5A4.3,4.3,0,0,0,24,19.641V4.359A4.3,4.3,0,0,0,19.75,0ZM12,21.271h-.012a9.3,9.3,0,1,1,.012,0Z" />
</svg>