<svg role="img" viewBox="0 0 185 185" xmlns="http://www.w3.org/2000/svg">
    <title>Deno</title>
    <!-- Created by github.com/AlexTamayo -->
    <defs>
        <style>
            .b198e2b2-be11-4dc7-9c20-6c834f32fc5f {
                fill: #e6e7e8;
            }
        </style>
    </defs>
    <g id="b765aea7-6ec8-4b50-b10d-bc3b2d6235cd" data-name="Layer 1">
        <path class="b198e2b2-be11-4dc7-9c20-6c834f32fc5f"
            d="M96.332,63.015c-.5-3.816-3.439-6.683-6.8-6.42-4.02.315-6.659,5.291-7,8.492s1.242,8.483,6.479,8.38C95.141,73.346,97,68.1,96.332,63.015Z" />
        <path class="b198e2b2-be11-4dc7-9c20-6c834f32fc5f"
            d="M96.529,30.277A62.285,62.285,0,0,0,45.651,134.238a.992.992,0,0,0,1.688-.927c-8.229-32.233,9.622-67.023,29.547-78.034,7.4-4.088,14.6-5.642,21.076-3.024,9.911,4.007,15.577,10.652,27.844,16.241S139.4,83.4,135.979,92.817,121.543,106.971,111,106.453a104.175,104.175,0,0,1-12.029-1.51,45.361,45.361,0,0,1-7.119-1.823.8.8,0,0,0-.914.274.764.764,0,0,0-.006.954,23.737,23.737,0,0,0,6.368,4.3c-2.022,1.669-3.4,5.486-3.949,7.462a25.786,25.786,0,0,0-.658,7.884,22.5,22.5,0,0,0,7.937,15.148,22.863,22.863,0,0,0,14.143,5.317c7.352.131,16.159-3.028,23.073-10.128A62.287,62.287,0,0,0,96.529,30.277Z" />
        <path class="b198e2b2-be11-4dc7-9c20-6c834f32fc5f"
            d="M151.075,0H32.51C14.534,0,0,14.907,0,33.345v116.9c0,18.438,14.534,33.345,32.51,33.345H151.075c17.976,0,32.51-14.907,32.51-33.345V33.345C183.585,14.907,169.051,0,151.075,0Zm9.169,95.576a68.529,68.529,0,1,1-65.27-71.639A68.561,68.561,0,0,1,160.244,95.576Z" />
    </g>
</svg>