<svg role="img" viewBox="0 0 185 185" xmlns="http://www.w3.org/2000/svg">
    <title>Django</title>
    <!-- Created by github.com/AlexTamayo -->
    <defs>
        <style>
            .f2b5abca-835c-4f66-b577-bba8cc0ed011 {
                fill: #e6e7e8;
            }
        </style>
    </defs>
    <g id="ff4e76e7-3263-44ea-82a2-116ce1fbae0d" data-name="Layer 1">
        <path class="f2b5abca-835c-4f66-b577-bba8cc0ed011"
            d="M67.508,95.008c-2.127,3.575,3.218,4.432,6.666,3.419v-5.3C71.524,93.5,68.509,93.326,67.508,95.008Z" />
        <path class="f2b5abca-835c-4f66-b577-bba8cc0ed011"
            d="M27.515,91.248c-.025,4.773,3.474,7.617,9.058,6.324V84.925C30.918,83.2,27.538,86.687,27.515,91.248Z" />
        <path class="f2b5abca-835c-4f66-b577-bba8cc0ed011"
            d="M119.466,95.521c1.294,2.094,4.8,2.879,7.691,1.538q-.238-6-.171-12.306C120.339,83,116.378,90.526,119.466,95.521Z" />
        <path class="f2b5abca-835c-4f66-b577-bba8cc0ed011"
            d="M151.076,0H32.51C14.534,0,0,14.907,0,33.345v116.9c0,18.438,14.534,33.345,32.51,33.345H151.076c17.975,0,32.509-14.907,32.509-33.345V33.345C183.585,14.907,169.051,0,151.076,0ZM24.951,102.187c-6.5-3.637-7.027-15.192-1.88-20.339,2.609-2.609,7.862-4.446,13.5-3.247V67.15c-.014-.243-.028-.485.171-.513h7.691v36.4C37.063,104.247,30,105.011,24.951,102.187ZM56.9,95.351c-.327,6.762-.251,12.146-2.727,15.381a14.341,14.341,0,0,1-2.393,2.222c-.728.549-2.117,1.661-2.905,1.71s-2.837-1.1-3.76-1.539a27.626,27.626,0,0,0-3.59-1.709c2.926-1.813,5.7-3.172,6.837-6.836.986-3.187.855-7.806.855-12.306,0-4.444.019-9.611.019-13.535h7.672C56.9,84.4,56.9,88.47,56.9,95.351Zm.008-20.681H49.221V66.637h7.691Zm24.1,17.091v11.622c-6.353.366-16.008,2.53-19.484-1.709-2.042-2.49-1.822-7.241,0-9.571,2.355-3.011,7.5-3.668,12.135-4.1a4.392,4.392,0,0,0-.342-3.419c-4.243-1.08-8.459.594-11.451,1.88V80.481c4.519-2.076,14.986-4.262,18.117.512C81.63,83.5,81.01,87.875,81.01,91.761Zm27,11.964h-7.691V93.812c0-3.264.528-7.4-1.2-8.717-1.351-1.029-4.555-.513-6.494,0v18.63H84.941V79.968c7.863-2.042,22.055-4.232,23.074,5.64C108.518,90.475,107.643,97.778,108.015,103.725Zm26.32-18.8c-.175,8.331,1.775,19.625-1.538,25.636-1.994,3.62-5.666,5.942-11.28,6.324a22.961,22.961,0,0,1-10.255-1.538v-7.178c3.509,2.048,12.374,3.718,14.87-.513.734-1.245.687-2.532,1.025-4.444-1.607.085-3.167.829-5.127.855-8.061.107-13.048-6.311-11.11-15.212a12.121,12.121,0,0,1,5.47-7.862c5.613-3.421,14.241-3.161,22.389-1.709a50.2,50.2,0,0,1-2.563,5.641C135.423,85.1,134.736,84.61,134.335,84.925Zm22.9,18.287a15.665,15.665,0,0,1-8.2,1.2c-8.014-.7-13.069-8.867-10.255-17.946a12.324,12.324,0,0,1,1.2-2.735c1.742-2.962,4.683-4.947,9.571-5.469,6.4-.685,11.233,2.141,13.16,6.5C166,92.182,162.526,100.706,157.238,103.212Z" />
        <path class="f2b5abca-835c-4f66-b577-bba8cc0ed011"
            d="M150.06,84.583c-5.252,1.041-5.084,11.688-.855,13.331C157.589,101.172,158.517,82.906,150.06,84.583Z" />
    </g>
</svg>