<svg role="img" viewBox="0 0 185 185" xmlns="http://www.w3.org/2000/svg">
    <title>Draw.io</title>
    <!-- Created by github.com/AlexTamayo -->
    <defs>
        <style>
            .b8dad5f2-9337-4165-864e-e0c459bb9f55 {
                fill: #e6e7e8;
            }

            .b1143501-1bff-4860-bf4c-7b9fd2d3c3e8 {
                fill: #cccccb;
            }

            .b7d45bca-8560-44fa-92a1-1da6218589f2 {
                fill: #999998;
            }
        </style>
    </defs>
    <g id="eb639f24-7297-4463-98e6-eb9aafd25c8a" data-name="Layer 1">
        <path class="b8dad5f2-9337-4165-864e-e0c459bb9f55"
            d="M151.075,0H32.51C14.534,0,0,14.907,0,33.345v116.9c0,18.438,14.534,33.345,32.51,33.345H151.075c17.976,0,32.51-14.907,32.51-33.345V33.345C183.585,14.907,169.051,0,151.075,0Zm-9.724,123.473a7.149,7.149,0,0,1-7.191,7.19H109.647a7.149,7.149,0,0,1-7.191-7.19V104.6a7.15,7.15,0,0,1,7.191-7.191H112.1L97.472,72.566H86.114L71.569,97.406h2.37a7.15,7.15,0,0,1,7.19,7.191v18.876a7.148,7.148,0,0,1-7.19,7.19H49.425a7.149,7.149,0,0,1-7.191-7.19V104.6a7.15,7.15,0,0,1,7.191-7.191H63.316L78.024,72.321a7.128,7.128,0,0,1-5.638-7.027V46.418a7.149,7.149,0,0,1,7.191-7.19H104.09a7.149,7.149,0,0,1,7.191,7.19V65.294a7.184,7.184,0,0,1-5.72,7.027l14.708,25H134.16a7.219,7.219,0,0,1,7.191,7.272Z" />
        <path class="b1143501-1bff-4860-bf4c-7b9fd2d3c3e8"
            d="M152.178,23.539H31.407a5.649,5.649,0,0,0-5.638,5.638V149.948a5.65,5.65,0,0,0,5.638,5.638H152.178a5.65,5.65,0,0,0,5.638-5.638V29.177A5.649,5.649,0,0,0,152.178,23.539Zm-10.827,99.934a7.149,7.149,0,0,1-7.191,7.19H109.647a7.149,7.149,0,0,1-7.191-7.19V104.6a7.149,7.149,0,0,1,7.191-7.19H112.1L97.472,72.566H86.114L71.569,97.407h2.37a7.149,7.149,0,0,1,7.19,7.19v18.876a7.149,7.149,0,0,1-7.19,7.19H49.425a7.149,7.149,0,0,1-7.191-7.19V104.6a7.149,7.149,0,0,1,7.191-7.19H63.316L78.024,72.321a7.128,7.128,0,0,1-5.638-7.027V46.418a7.149,7.149,0,0,1,7.191-7.19H104.09a7.149,7.149,0,0,1,7.191,7.19V65.294a7.184,7.184,0,0,1-5.72,7.027l14.708,25H134.16a7.219,7.219,0,0,1,7.191,7.272Z" />
        <path class="b7d45bca-8560-44fa-92a1-1da6218589f2"
            d="M157.653,91.442,110.19,42.528a7.2,7.2,0,0,1,1.132,3.89V65.294a7.184,7.184,0,0,1-5.72,7.027l14.708,25H134.2a7.219,7.219,0,0,1,7.191,7.272v18.876a7.149,7.149,0,0,1-7.191,7.19H109.688a7.149,7.149,0,0,1-7.191-7.19V104.6a7.149,7.149,0,0,1,7.191-7.19h2.451L97.513,72.566H86.155L71.61,97.407h2.369a7.149,7.149,0,0,1,7.191,7.19v18.876a7.149,7.149,0,0,1-7.191,7.19H49.466a7.16,7.16,0,0,1-4.8-1.827l-.018.03,26.311,26.72h81.222a5.65,5.65,0,0,0,5.638-5.638Z" />
    </g>
</svg>