<svg role="img" viewBox="0 0 185 185" xmlns="http://www.w3.org/2000/svg">
  <!-- Created by github.com/AlexTamayo -->
  <title>Email</title>
  <path fill="#fbb040"
    d="M151.075,0H32.51C14.534,0,0,14.907,0,33.345v116.9c0,18.438,14.534,33.345,32.51,33.345H151.075c17.976,0,32.51-14.907,32.51-33.345V33.345C183.585,14.907,169.051,0,151.075,0ZM47.847,52.45h87.38c2.991,0,4.28,4.021,1.908,5.954L92.787,94.542a3,3,0,0,1-3.858-.03L45.917,58.373C43.6,56.421,44.89,52.466,47.847,52.45Zm-15.169,70.6a14.846,14.846,0,0,1-1.3-6.107V66.646a14.7,14.7,0,0,1,2.483-8.228,2.944,2.944,0,0,1,2.6.646l36.107,30.4a3.444,3.444,0,0,1-.086,5.271l-36.108,28.29A2.97,2.97,0,0,1,32.678,123.046Zm104.47,8.089H46.079c-2.9-.15-4.079-4.12-1.692-5.986L79.209,97.936a3,3,0,0,1,3.857.112l5.753,5.037a3,3,0,0,0,3.921.061l6.328-5.213a2.994,2.994,0,0,1,3.767-.064L138.312,125.2A3.393,3.393,0,0,1,137.148,131.135Zm15.06-14.2a14.8,14.8,0,0,1-1.676,6.874,2.953,2.953,0,0,1-3.288-.244l-37.7-28.775a3.442,3.442,0,0,1-.092-5.316L147.18,58.394a2.966,2.966,0,0,1,2.027-.7,14.663,14.663,0,0,1,3,8.951Z" />
</svg>