<svg role="img" viewBox="0 0 24 24" xmlns="http://www.w3.org/2000/svg">
  <!-- Created by Alex Tamayo -->
  <title>Express.js</title>
  <path fill="#e6e7e8"
    d="M19.75,0H4.25A4.3,4.3,0,0,0,0,4.359V19.641A4.3,4.3,0,0,0,4.25,24h15.5A4.3,4.3,0,0,0,24,19.641V4.359A4.3,4.3,0,0,0,19.75,0ZM12.829,20.573a3.481,3.481,0,0,1-1.4.7,4.007,4.007,0,0,1-1.426.11,4.142,4.142,0,0,1-2.1-.834,3.255,3.255,0,0,1-.875-1.071,4.385,4.385,0,0,1-.464-1.346A6.463,6.463,0,0,1,6.5,16.27a5.138,5.138,0,0,1,.472-1.682,4.363,4.363,0,0,1,.865-1.167,3.862,3.862,0,0,1,1.927-.971,3.665,3.665,0,0,1,.993-.045,3.5,3.5,0,0,1,1.186.325,3.85,3.85,0,0,1,1.023.705,3.944,3.944,0,0,1,1.071,1.959,8.707,8.707,0,0,1,.122,1.946l-6.426,0a3.487,3.487,0,0,0,.356,1.519,2.413,2.413,0,0,0,1.04,1.08,2.375,2.375,0,0,0,.815.256,3.157,3.157,0,0,0,1.549-.2,2.046,2.046,0,0,0,.927-.733,2.153,2.153,0,0,0,.339-.732,1.316,1.316,0,0,1,.073-.2.715.715,0,0,1,.843-.434l.5.144s-.148.591-.171.684A3.58,3.58,0,0,1,12.829,20.573Zm8.467.583a1.192,1.192,0,0,1-.436.082,1.211,1.211,0,0,1-.908-.4,2.711,2.711,0,0,1-.2-.267l-.077-.11-2-2.771-2.179,2.97a1.422,1.422,0,0,1-.126.171,1.165,1.165,0,0,1-.745.391,1.231,1.231,0,0,1-.544-.059l-.42-.136L16.884,16.7l-3.006-3.918.411-.145a1.248,1.248,0,0,1,.636-.059,1.323,1.323,0,0,1,.864.56c.2.286.412.567.621.848l1.28,1.726,1.891-2.531c.073-.108.1-.154.139-.2a1.173,1.173,0,0,1,1.3-.343l.3.182-.231.434-1.87,2.461c-.223.291-.445.582-.672.871a.867.867,0,0,0-.072.1.079.079,0,0,0,.016.076l.329.426,2.836,3.781Z" />
  <path fill="#e6e7e8"
    d="M12.85,15.847a2.889,2.889,0,0,0-.632-1.406,2.213,2.213,0,0,0-1.51-.816,2.708,2.708,0,0,0-.885.046,2.424,2.424,0,0,0-1.208.638,2.706,2.706,0,0,0-.652,1.006,3.533,3.533,0,0,0-.2.835h5.128C12.879,16.049,12.867,15.947,12.85,15.847Z" />
</svg>