<svg role="img" viewBox="0 0 185 185" xmlns="http://www.w3.org/2000/svg">
  <!-- Created by github.com/AlexTamayo -->
  <title>The Foundry</title>
  <path fill="#e6e7e8"
    d="M151.075,0H32.51C14.534,0,0,14.907,0,33.345v116.9c0,18.438,14.534,33.345,32.51,33.345H151.075c17.976,0,32.51-14.907,32.51-33.345V33.345C183.585,14.907,169.051,0,151.075,0ZM105.656,62.7c-1.506,0-38.806.01-41.005.012-2.05,0-2.3.253-2.3,2.351,0,4.85.027,16.165-.025,16.969-.082,1.3.7,1.666,1.784,1.711.767.031,25.933,0,32.535,0,2.246,0,2.653.337,2.653,2.74,0,2.862,0,8.247,0,10.8,0,1.818-.407,2.317-2.282,2.317-1.514,0-24.291-.087-30.662,0-1.415.019-3.986.082-3.986,4.024q0,14.478,0,28.958c0,2.077-.018,2.057-2.177,2.066-3.961.017-7.921.09-11.881.151-2.952.045-3.242-.27-3.239-3.141.017-13.783.033-41.347.046-41.347q0-20.818,0-41.636c0-2.285.011-2.33,2.357-2.332,14.311-.014,52.921-.042,57.915-.02,2.166.009,2.266.166,2.263,2.313q-.008,5.979,0,11.958A1.881,1.881,0,0,1,105.656,62.7Zm28.384,74.567A18.669,18.669,0,1,1,152.708,118.6,18.668,18.668,0,0,1,134.04,137.266Z" />
</svg>