<svg role="img" viewBox="0 0 24 24" xmlns="http://www.w3.org/2000/svg">
  <!-- Created by github.com/AlexTamayo -->
  <title>Git</title>
  <path fill="#e6e7e8"
    d="M19.75,0H4.25A4.3,4.3,0,0,0,0,4.359V19.641A4.3,4.3,0,0,0,4.25,24h15.5A4.3,4.3,0,0,0,24,19.641V4.359A4.3,4.3,0,0,0,19.75,0Zm1.816,12.926-8.641,8.641a1.281,1.281,0,0,1-1.811,0l-8.683-8.68a1.29,1.29,0,0,1,0-1.814l5.954-5.95,2.246,2.258a1.524,1.524,0,0,0,.826,2v5.459a1.554,1.554,0,0,0-.5.336,1.526,1.526,0,1,0,2.162,0,1.538,1.538,0,0,0-.4-.289V9.477l2.062,2.052a1.526,1.526,0,1,0,.914-.864l-2.2-2.2a1.523,1.523,0,0,0-1.928-1.94L9.273,4.234l1.8-1.8a1.285,1.285,0,0,1,1.813,0l8.682,8.682A1.28,1.28,0,0,1,21.566,12.926Z" />
</svg>