<svg role="img" viewBox="0 0 24 24" xmlns="http://www.w3.org/2000/svg">
  <!-- Created by Alex Tamayo -->
  <title>Html 5</title>
  <polygon fill="#e6e7e8"
    points="14.49 12.824 14.239 15.46 12 16.078 9.727 15.455 9.582 13.832 7.575 13.832 7.829 17.041 12 18.156 16.138 17.046 16.711 10.771 9.331 10.771 9.331 10.77 9.153 8.679 16.891 8.681 17.068 6.664 6.932 6.661 7.469 12.824 14.49 12.824" />
  <path fill="#e6e7e8"
    d="M19.75,0H4.25A4.3,4.3,0,0,0,0,4.359V19.641A4.3,4.3,0,0,0,4.25,24h15.5A4.3,4.3,0,0,0,24,19.641V4.359A4.3,4.3,0,0,0,19.75,0ZM18.609,19.858l-6.627,1.875L5.394,19.857,3.922,3.269H20.078Z" />
</svg>