<svg role="img" viewBox="0 0 185 185" xmlns="http://www.w3.org/2000/svg">
  <!-- Created by github.com/AlexTamayo -->
  <title>Html5 Shaded</title>
  <path fill="#e6e7e8"
    d="M151.076,0H32.51C14.534,0,0,14.907,0,33.345v116.9c0,18.438,14.534,33.345,32.51,33.345H151.076c17.976,0,32.509-14.907,32.509-33.345V33.345C183.585,14.907,169.052,0,151.076,0ZM140.885,146.182,91.832,159.688,42.661,146.21,31.793,23.9h120Z" />
  <polygon fill="#d1d3d4" points="91.831 33.769 140.885 33.769 131.48 138.401 91.831 149.389 91.831 33.769" />
  <polygon fill="#e6e7e8"
    points="127.858 48.778 91.832 48.744 53.943 48.778 58.104 94.332 108.995 94.332 107.267 113.627 91.831 118.045 75.311 113.61 74.003 101.587 58.678 101.587 60.848 125.284 91.831 133.791 120.995 125.284 125.136 79.111 72.283 79.111 70.72 63.933 126.498 63.933 127.858 48.778" />
  <polygon fill="#fff"
    points="125.136 79.112 91.831 79.112 91.831 94.332 108.995 94.332 107.267 113.627 91.831 118.045 91.831 133.791 120.995 125.284 125.136 79.112" />
  <polygon fill="#fff"
    points="91.831 48.744 91.831 63.933 126.498 63.933 127.858 48.778 91.831 48.744 91.831 48.744" />
</svg>