<svg role="img" viewBox="0 0 185 185" xmlns="http://www.w3.org/2000/svg">
  <!-- Created by github.com/AlexTamayo -->
  <title>Html5 Flat V2</title>
  <path fill="#e6e7e8"
    d="M151.076,0H32.51C14.534,0,0,14.907,0,33.345v116.9c0,18.438,14.534,33.345,32.51,33.345H151.076c17.976,0,32.509-14.907,32.509-33.345V33.345C183.585,14.907,169.052,0,151.076,0ZM140.885,146.182,91.832,159.688,42.661,146.21,31.793,23.9h120Z" />
  <polygon fill="#e6e7e8"
    points="75.312 113.61 74.003 101.587 58.678 101.587 60.848 125.284 91.832 133.791 91.832 118.045 75.312 113.61" />
  <path fill="#e6e7e8"
    d="M91.832,94.332V79.112h33.3L121,125.284l-29.163,8.507v15.6L131.48,138.4l9.405-104.632H91.832V48.744l36.026.034L126.5,63.933H91.832V48.744l-37.889.034L58.1,94.332Zm0-30.4V79.112H72.283L70.72,63.933Z" />
  <polygon fill="#e6e7e8" points="108.995 94.333 91.832 94.333 91.832 118.045 107.267 113.627 108.995 94.333" />
</svg>