<svg role="img" viewBox="0 0 185 185" xmlns="http://www.w3.org/2000/svg">
  <!-- Created by github.com/AlexTamayo -->
  <title>Html5 Flat V1</title>
  <polygon fill="#e6e7e8"
    points="110.837 98.095 108.918 118.256 91.793 122.988 74.403 118.221 73.296 105.804 57.943 105.804 59.885 130.35 91.793 138.883 123.448 130.392 127.827 82.388 71.378 82.388 71.378 82.382 70.013 66.386 129.209 66.404 130.563 50.974 53.022 50.956 57.13 98.095 110.837 98.095" />
  <path fill="#e6e7e8"
    d="M151.075,0H32.51C14.534,0,0,14.907,0,33.345v116.9c0,18.438,14.534,33.345,32.51,33.345H151.075c17.976,0,32.51-14.907,32.51-33.345V33.345C183.585,14.907,169.051,0,151.075,0Zm-8.73,151.9L91.657,166.243,41.258,151.9,30,25H153.585Z" />
</svg>