<svg role="img" viewBox="0 0 24 24" xmlns="http://www.w3.org/2000/svg">
  <!-- Created by github.com/AlexTamayo -->
  <title>Illustrator</title>
  <path fill="#e6e7e8"
    d="M19.75,0H4.25A4.3,4.3,0,0,0,0,4.359V19.641A4.3,4.3,0,0,0,4.25,24h15.5A4.3,4.3,0,0,0,24,19.641V4.359A4.3,4.3,0,0,0,19.75,0ZM15.1,17.269H13.009a.151.151,0,0,1-.159-.11l-.82-2.38H8.31l-.76,2.35a.177.177,0,0,1-.19.141H5.48c-.11,0-.14-.061-.11-.18L8.59,7.819c.03-.1.06-.21.1-.33a3.493,3.493,0,0,0,.06-.65.1.1,0,0,1,.08-.11h2.59c.08,0,.12.03.13.08l3.65,10.3C15.23,17.218,15.2,17.269,15.1,17.269Zm3.4-.15c0,.11-.039.16-.129.16H16.41a.14.14,0,0,1-.15-.16v-7.7c0-.1.041-.14.131-.14h1.98c.09,0,.129.05.129.14Zm-.209-9.03a1.179,1.179,0,0,1-.911.35,1.242,1.242,0,0,1-.891-.35,1.3,1.3,0,0,1-.34-.92,1.179,1.179,0,0,1,.359-.89,1.289,1.289,0,0,1,.892-.35,1.2,1.2,0,0,1,.91.35,1.262,1.262,0,0,1,.33.89A1.269,1.269,0,0,1,18.291,8.089Z" />
  <path fill="#e6e7e8"
    d="M10.93,11.169c-.1-.31-.19-.61-.29-.92s-.19-.6-.27-.89-.15-.54-.22-.78h-.02a12.278,12.278,0,0,1-.34,1.29c-.15.48-.3.98-.46,1.48-.14.51-.29.98-.44,1.4h2.54c-.06-.211-.14-.46-.23-.721S11.02,11.469,10.93,11.169Z" />
</svg>