<svg role="img" viewBox="0 0 24 24" xmlns="http://www.w3.org/2000/svg">
  <!-- Created by github.com/AlexTamayo -->
  <title>Javascript</title>
  <path fill="#e6e7e8"
    d="M19.75,0H4.25A4.3,4.3,0,0,0,0,4.359V19.641A4.3,4.3,0,0,0,4.25,24h15.5A4.3,4.3,0,0,0,24,19.641V4.359A4.3,4.3,0,0,0,19.75,0Zm-7.1,20.612a2.809,2.809,0,0,1-1.811,1.411,4.4,4.4,0,0,1-3.207-.405A3.537,3.537,0,0,1,6.308,20.1l1.825-1.125a.858.858,0,0,1,.127.2,1.929,1.929,0,0,0,.83.855c.386.121,1.236.209,1.566-.48a9.468,9.468,0,0,0,.138-2.711c0-1.941.009-3.867.009-5.8h2.248l0,.056c0,2.07.012,4.125,0,6.179A6.931,6.931,0,0,1,12.65,20.612Zm9.264-.753c-.781,2.67-5.131,2.76-6.871,1a4.044,4.044,0,0,1-.81-1.109l1.83-1.051a2.633,2.633,0,0,0,1.755,1.336c1.1.135,2.206-.24,1.966-1.41-.255-.961-2.251-1.185-3.616-2.205a3.137,3.137,0,0,1-.569-4.471,3.224,3.224,0,0,1,1.71-1l.7-.089a3.359,3.359,0,0,1,2.834,1.034,4.127,4.127,0,0,1,.586.78c-.721.449-.721.449-1.755,1.125a1.627,1.627,0,0,0-.976-.9,1.146,1.146,0,0,0-1.515.66,1.181,1.181,0,0,0,.046.705c.243.555,1.061.8,1.8,1.14,2.115.858,2.828,1.778,3,2.873l-.046-.067A3.385,3.385,0,0,1,21.914,19.859Z" />
</svg>