<svg role="img" viewBox="0 0 24 24" xmlns="http://www.w3.org/2000/svg">
  <!-- Created by Alex Tamayo -->
  <title>Jest</title>
  <path fill="#e6e7e8"
    d="M17.219,14.309a2.46,2.46,0,0,1-2.383-1.841h-.923a2.466,2.466,0,0,1-2.381,1.841,2.312,2.312,0,0,1-.38-.026,7.39,7.39,0,0,1-1.143,1.358A7.508,7.508,0,0,1,7.368,17.28l-.225.082-.209-.11a2.8,2.8,0,0,1-1.54-2.964,2.029,2.029,0,0,1-.379-.1c-.022.045-.039.083-.061.127A8.436,8.436,0,0,0,4.1,16.592a3.212,3.212,0,0,0,1.007,3.261,2.886,2.886,0,0,0,1.7.544,9.478,9.478,0,0,0,3.844-1.314,16.627,16.627,0,0,1,3.31-1.358q.644-.147,1.3-.231a5.875,5.875,0,0,0,2.113-.566,2.429,2.429,0,0,0,1.193-1.689,2.5,2.5,0,0,0-.11-1.27A2.441,2.441,0,0,1,17.219,14.309Z" />
  <path fill="#e6e7e8" d="M5.78,13.243a1.386,1.386,0,1,0-1.387-1.385A1.388,1.388,0,0,0,5.78,13.243Z" />
  <path fill="#e6e7e8"
    d="M15.491,10.108,14.342,7.76l-1.138,2.3a2.438,2.438,0,0,1,.742,1.32H14.8A2.493,2.493,0,0,1,15.491,10.108Z" />
  <path fill="#e6e7e8"
    d="M11.485,13.19a1.357,1.357,0,0,0,1.053-2.3l-.006-.005c-.06-.055-.121-.11-.186-.159l-.006-.006c-.021-.011-.039-.028-.061-.039-.005,0-.005-.005-.01-.005-.022-.011-.044-.027-.067-.038H12.2a.328.328,0,0,0-.071-.039H12.12c-.022-.011-.044-.017-.066-.028-.005,0-.011,0-.016,0a.325.325,0,0,0-.056-.022c-.011,0-.016-.005-.022-.005a.315.315,0,0,0-.065-.023h-.006l-.077-.016a.044.044,0,0,0-.022,0c-.022-.006-.039-.006-.06-.011a.049.049,0,0,0-.028-.006c-.016,0-.033-.006-.055-.006h-.215c-.021,0-.038.006-.06.006H11.35c-.022.006-.044.006-.067.012h-.015l-.077.016a1.358,1.358,0,0,0,.294,2.68Z" />
  <path fill="#e6e7e8"
    d="M17.367,10.471h-.012a.2.2,0,0,0-.06-.006h-.072c-.032,0-.06.006-.088.006h-.027c-.022,0-.044.005-.066.005a.032.032,0,0,1-.022.006l-.082.017h-.006l-.077.016c-.006,0-.016.006-.022.006-.022,0-.044.016-.066.022-.006,0-.011.005-.016.005a.733.733,0,0,1-.078.033c-.027.011-.054.022-.077.033,0,0-.011,0-.016,0-.022.012-.044.028-.066.04,0,0-.006,0-.006,0-.049.032-.1.066-.143.1l0,.005a1.386,1.386,0,1,0,2.244,1.09h0A1.4,1.4,0,0,0,17.5,10.493,1.069,1.069,0,0,0,17.367,10.471Z" />
  <path fill="#e6e7e8"
    d="M19.75,0H4.25A4.3,4.3,0,0,0,0,4.359V19.641A4.3,4.3,0,0,0,4.25,24h15.5A4.3,4.3,0,0,0,24,19.641V4.359A4.3,4.3,0,0,0,19.75,0ZM17.833,9.475a2.468,2.468,0,0,1,1.843,2.382h0a2.453,2.453,0,0,1-.368,1.3,3.635,3.635,0,0,1,.351,2.272,3.546,3.546,0,0,1-1.727,2.446,6.693,6.693,0,0,1-2.507.7c-.418.061-.813.116-1.193.209a15.988,15.988,0,0,0-3.086,1.276A10.349,10.349,0,0,1,6.813,21.5a4.025,4.025,0,0,1-2.33-.736,4.149,4.149,0,0,1-1.464-4.345,9.525,9.525,0,0,1,.946-2.579c.039-.082.077-.16.116-.237a2.441,2.441,0,0,1-.715-1.727A2.458,2.458,0,1,1,6.55,14.222a1.655,1.655,0,0,0,.688,1.935,6.447,6.447,0,0,0,2.018-1.3,6.6,6.6,0,0,0,.858-.985A2.46,2.46,0,0,1,10.851,9.5L8.479,2.5H20.2Z" />
  <path fill="#e6e7e8"
    d="M11.988,9.443a1.991,1.991,0,0,1,.259.06l2.1-4.234,2.089,4.262a1.872,1.872,0,0,1,.247-.072L18.665,3.6H10.014Z" />
</svg>