<svg role="img" viewBox="0 0 24 24" xmlns="http://www.w3.org/2000/svg">
  <!-- Created by Alex Tamayo -->
  <title>Jquery</title>
  <path fill="#e6e7e8"
    d="M19.75,0H4.25A4.3,4.3,0,0,0,0,4.359V19.641A4.3,4.3,0,0,0,4.25,24h15.5A4.3,4.3,0,0,0,24,19.641V4.359A4.3,4.3,0,0,0,19.75,0Zm-6.6,5.427a6.008,6.008,0,0,1,.72-.891l.494.386-.248.453A2.5,2.5,0,0,0,13.846,6.6a3.192,3.192,0,0,0,.417,1.433,3.813,3.813,0,0,0,2.506,1.885,4.231,4.231,0,0,0,1.04.115,2.394,2.394,0,0,0,.984-.211,1.953,1.953,0,0,0,.7-.544l.234-.287.6.349-.249.456c-.056.092-.112.184-.171.275a3.427,3.427,0,0,1-1.284,1.184,3.478,3.478,0,0,1-1.076.349,4.091,4.091,0,0,1-.65.05,5.871,5.871,0,0,1-.63-.037,3.977,3.977,0,0,1-1.527-.521,4.554,4.554,0,0,1-1.859-1.927A3.754,3.754,0,0,1,12.5,7.92,4.231,4.231,0,0,1,13.154,5.427Zm6.988,11.427a7.608,7.608,0,0,1-1.2,1.759,7.444,7.444,0,0,1-2.587,1.855,7.826,7.826,0,0,1-1.5.472,8.547,8.547,0,0,1-1.226.163c-.2.014-.407.021-.623.021q-.252,0-.525-.012a12.176,12.176,0,0,1-1.36-.153,6.935,6.935,0,0,1-1.352-.411,8.865,8.865,0,0,1-1.284-.623,9.52,9.52,0,0,1-1.405-.985c-.164-.139-.321-.286-.478-.434l-.09-.085a8.6,8.6,0,0,1-1.18-1.4,8.923,8.923,0,0,1-1.293-2.785,8.429,8.429,0,0,1-.227-1.2,7.493,7.493,0,0,1-.04-1.121,6.315,6.315,0,0,1,1.088-3.3A11.462,11.462,0,0,1,6.174,7.064l.572.208a14.7,14.7,0,0,0-.694,2.009,6.363,6.363,0,0,0-.069,1.448A7.592,7.592,0,0,0,7.372,14.6a8.441,8.441,0,0,0,1.166,1.356,9.347,9.347,0,0,0,1.715,1.286,9.131,9.131,0,0,0,1.19.58A7.034,7.034,0,0,0,13,18.264c.326.05.654.088.982.114.274.02.549.022.827.02a6.948,6.948,0,0,0,.9-.074,6.851,6.851,0,0,0,1.493-.377A5.647,5.647,0,0,0,18.958,16.9c.244-.218.7-.756.7-.756l1-.4Zm.41-4.041a5.448,5.448,0,0,1-2.233,2.481,5.585,5.585,0,0,1-1.709.643,6.887,6.887,0,0,1-1.385.14c-.17,0-.34-.006-.509-.019a9.712,9.712,0,0,1-1.022-.116,4.758,4.758,0,0,1-1.036-.345,7.255,7.255,0,0,1-2.434-1.7,6.584,6.584,0,0,1-1.488-2.507A5.462,5.462,0,0,1,8.493,10.2a5.242,5.242,0,0,1,0-1.142,4.806,4.806,0,0,1,.887-2.3c.17-.235.384-.527.523-.694.122-.146.51-.565.51-.565l.436.4-.269.571a4.173,4.173,0,0,0-.325,1.18,4.768,4.768,0,0,0-.015.991,5.077,5.077,0,0,0,.412,1.576A6.1,6.1,0,0,0,12.2,12.319,6.415,6.415,0,0,0,14.372,13.6a5.906,5.906,0,0,0,1.165.285,5.663,5.663,0,0,0,1.051.046,4.613,4.613,0,0,0,2.477-.837,3.907,3.907,0,0,0,.915-.9l.137-.137.985-.617S20.584,12.746,20.552,12.813Z" />
</svg>