<svg role="img" viewBox="0 0 185 185" xmlns="http://www.w3.org/2000/svg">
  <!-- Created by github.com/AlexTamayo -->
  <title>Linkedin</title>
  <path fill="#027bb6"
    d="M151.075,0H32.51C14.534,0,0,14.907,0,33.345v116.9c0,18.438,14.534,33.345,32.51,33.345H151.075c17.977,0,32.51-14.907,32.51-33.345V33.345C183.585,14.907,169.052,0,151.075,0ZM58.767,156.037q-11.058,0-22.117,0c-.1,0-.191,0-.287,0-.7-.007-.708-.007-.708-.709q0-6.966,0-13.931,0-30.878,0-61.756c0-1.175-.156-1.033,1.021-1.034q11.094-.007,22.189,0c.92,0,.858-.093.858.845q0,18.922,0,37.844v37.771C59.725,156.171,59.79,156.037,58.767,156.037Zm-11.055-88A13.955,13.955,0,1,1,61.657,54.044,13.939,13.939,0,0,1,47.712,68.036Zm101.2,88q-11.094,0-22.19,0c-1.059,0-.942.1-.942-.979q0-18.528,0-37.055c0-2.082-.006-4.165-.183-6.242a23.319,23.319,0,0,0-1.688-7.6,9.913,9.913,0,0,0-8.225-6.132,18.059,18.059,0,0,0-7.191.421,11.17,11.17,0,0,0-7.482,6.306,22.278,22.278,0,0,0-1.836,6.979,52.728,52.728,0,0,0-.306,6.307q0,18.528,0,37.055c0,1.026.114.94-.906.94q-11.132,0-22.262,0c-.914,0-.895.126-.895-.889V117.3q0-18.851,0-37.7c0-1.115-.113-.995,1-.995q10.593,0,21.185,0c1.008,0,.9-.083.9.871,0,2.992,0,5.984.008,8.977,0,.22-.14.559.128.643.342.106.378-.3.5-.5a23.262,23.262,0,0,1,9.538-8.887,27.338,27.338,0,0,1,12.653-3.03,39.039,39.039,0,0,1,11.216,1.377,21.86,21.86,0,0,1,10.131,5.993,24.143,24.143,0,0,1,5.082,8.669,45.05,45.05,0,0,1,2.162,9.936,102.773,102.773,0,0,1,.554,11.755q-.011,20.322,0,40.645C149.852,156.133,149.979,156.038,148.91,156.038Z" />
</svg>