<svg role="img" viewBox="0 0 185 185" xmlns="http://www.w3.org/2000/svg">
  <!-- Created by github.com/AlexTamayo -->
  <title>Marvelous Designer</title>
  <path fill="#e6e7e8"
    d="M151.075,0H32.51C14.534,0,0,14.907,0,33.345v116.9c0,18.438,14.534,33.345,32.51,33.345H151.075c17.977,0,32.51-14.907,32.51-33.345V33.345C183.585,14.907,169.052,0,151.075,0ZM150.4,78.007q0,23.337,0,46.676c0,2.079-.007,2.082-2.1,2.083-3.9,0-7.808-.065-11.708.038-1.535.04-1.971-.407-1.967-1.958q.071-27.442.017-54.886V68.2l-.4-.181a5.772,5.772,0,0,0-.927.921q-16.022,25.36-32.037,50.725a2.625,2.625,0,0,0-.011,3.165c5.2,8.685,10.346,17.405,15.5,26.116.225.379.414.779.775,1.464-5.234,0-10.144.023-15.052-.041-.416-.006-.952-.513-1.217-.925-2.688-4.17-5.328-8.371-7.992-12.557-.4-.622-.85-1.207-1.411-2-.431.59-.738.966-1,1.373-2.711,4.275-5.449,8.535-8.1,12.85a2.468,2.468,0,0,1-2.445,1.335c-4.606-.062-9.214-.026-14.171-.026,1.047-1.811,1.949-3.4,2.88-4.979q6.8-11.5,13.633-22.989a2.038,2.038,0,0,0-.049-2.475q-16.2-25.6-32.362-51.238a1.814,1.814,0,0,0-1.2-.771c-.023.523-.066,1.045-.066,1.568q.008,27.6.022,55.19c0,2.042,0,2.044-2.1,2.045H33.167v-1.742q0-44.32,0-88.64c0-3.213-.008-3.212,3.282-3.211,2.889,0,5.781-.067,8.665.047a2.708,2.708,0,0,1,1.922,1.053Q63.6,61.173,80.067,88.134q5.472,8.937,10.947,17.871a9.829,9.829,0,0,0,.915,1.056c1.066-1.708,2.037-3.229,2.974-4.771q20.583-33.875,41.137-67.768a2.423,2.423,0,0,1,2.415-1.372c3.394.073,6.794.1,10.186-.006,1.462-.046,1.784.491,1.78,1.835Q150.366,56.494,150.4,78.007Z" />
</svg>