<svg role="img" viewBox="0 0 185 185" xmlns="http://www.w3.org/2000/svg">
  <!-- Created by github.com/AlexTamayo -->
  <title>Autodesk Maya</title>
  <path fill="#e6e7e8"
    d="M151.075,0H32.51C14.534,0,0,14.907,0,33.345v116.9c0,18.438,14.534,33.345,32.51,33.345H151.075c17.977,0,32.51-14.907,32.51-33.345V33.345C183.585,14.907,169.052,0,151.075,0Zm-2.327,40.934V145.109c-8.252,0-18.57-.206-24.756,0a1.7,1.7,0,0,1-.473-.016.128.128,0,0,1-.06-.044.155.155,0,0,1,.036-.138,12.772,12.772,0,0,0,1.947-2.79,84.821,84.821,0,0,0,3.837-7.826,9.053,9.053,0,0,1,.573-1.246c.041-.119.074-.241.123-.357a226.009,226.009,0,0,0,8.249-23.254,12.822,12.822,0,0,1,.544-1.71,3.785,3.785,0,0,1,.075-.416c.493-1.724.993-3.447,1.459-5.178q2.208-8.216,3.871-16.557.968-4.83,1.744-9.7.523-3.3.969-6.608.453-3.381.8-6.774c.2-1.932.378-3.867.517-5.8.189-2.613.465-7.733.531-8.457-.042.336-.195,1.562-.244,2.015-.373,3.438-1.049,10.973-1.435,13.758q-.684,4.928-1.574,9.822c-.85,4.693-3.483,16.529-3.848,17.771-.128.862-6.1,22.323-9.489,32.025-1.741,4.983-3.584,9.929-5.647,14.79a56.9,56.9,0,0,1-2.642,5.618,4.357,4.357,0,0,1-.544.831c-.163.178-.225.165-.347-.051-.039-.069-1.048-2.422-1.525-3.525a1.579,1.579,0,0,1-.132-.643c.006-9.535.01-40.915,0-46.667a2.282,2.282,0,0,1,.363-1.291c.467-.732,26.867-51.407,27.072-51.754-.2.347-45.188,83.512-45.643,84.172l-.017.07q-10.162,0-20.327-.011c-.987,0-.814.112-1.306-.77-.223-.4-35.1-61.045-45.666-81.995.089.2,5.7,11.43,8.53,16.819,2.365,4.506,12.2,22.656,14.755,27.221.811,1.447,1.618,2.9,2.443,4.338a1,1,0,0,1,.09.892c-1.823,5.409-3.842,10.742-6.1,15.983-3,6.957-7.7,15.88-10.525,21.036-.722,1.317-2.076,3.691-2.963,5.225q-3.23,5.591-6.572,11.114c-.073.122-.143.245-.214.368.208-.08.3-.275.417-.438,3.139-4.289,6.057-8.725,8.819-13.263,2.186-3.593,5-8.528,6.505-11.458,2.262-4.4,6.293-13.458,8-18.1.91-2.481,3.194-10.078,3.194-10.078s.527.811.717,1.082a2.835,2.835,0,0,1,.472,1.736c-.021,6.134-.025,36.827,0,45.376a2.135,2.135,0,0,1-.991,1.912,18.815,18.815,0,0,1-4.715,1.9,57.322,57.322,0,0,1-6.3,1.069c-2.117.251-10.093.746-13.464.834-.724.018-1.93,0-2.9,0-.058,0-.175.058-.142-.093V40.745l.195.014c.988-.113,13.134-1.393,14.6-1.531,1.21-.115,18.4-1.614,18.527-1.614-.016.183,34.338,86.009,34.372,86.114.083-.181-10.219-29.331-10.219-29.331s21.426-51.443,22.093-53.031c.279-.667.167-.6.886-.6,10.82-.005,33.124-.021,33.456-.025Z" />
</svg>