<svg xmlns="http://www.w3.org/2000/svg" xmlns:xlink="http://www.w3.org/1999/xlink" viewBox="0 0 183.585 183.585">
  <!-- Created by github.com/AlexTamayo -->
  <title>Autodesk Maya - shaded</title>
  <defs>
    <style>
      .e20763e3-efa2-4738-ba2e-da62bbeed542 {
        fill: url(#e3720ed0-1eaa-42ae-80cb-1a9b48496ad9);
      }

      .b74bf3b3-5c12-4a31-ac71-57ffe66069dd {
        fill: url(#b5933941-310b-4aeb-b6fe-bda1617bffcf);
      }

      .b1c1a4ce-b6f3-493d-8930-1b290c1112e7 {
        fill: url(#b3a9fa1e-bea8-4c75-8e08-bdb42358133a);
      }

      .ba2ac766-63d8-4d6c-a0da-a5906bc47608 {
        fill: url(#aef8a74b-f787-4cc1-826b-be6eacf6e7b1);
      }

      .b682f0b3-d13a-407e-96d7-9bb3f1c31651 {
        fill: url(#a0255b3d-4384-4b1e-8a25-22c5cc4dd615);
      }

      .b6891595-2ad6-4727-99f2-4d0f2f766dd4 {
        fill: url(#bf67adec-445d-4d18-809a-30909d71787b);
      }
    </style>
    <linearGradient id="e3720ed0-1eaa-42ae-80cb-1a9b48496ad9" x1="135.787" y1="147.039" x2="151.384" y2="48.562"
      gradientUnits="userSpaceOnUse">
      <stop offset="0.018" stop-color="#5e5e5e" />
      <stop offset="0.454" stop-color="#acacac" />
      <stop offset="0.892" stop-color="#fff" />
    </linearGradient>
    <linearGradient id="b5933941-310b-4aeb-b6fe-bda1617bffcf" x1="53.705" y1="45.761" x2="27.415" y2="143.877"
      gradientUnits="userSpaceOnUse">
      <stop offset="0" stop-color="#424242" />
      <stop offset="0.522" stop-color="#959595" />
      <stop offset="0.843" stop-color="#c4c4c4" />
    </linearGradient>
    <linearGradient id="b3a9fa1e-bea8-4c75-8e08-bdb42358133a" x1="30.255" y1="124.368" x2="68.012" y2="116.343"
      gradientUnits="userSpaceOnUse">
      <stop offset="0.001" stop-color="#292929" />
      <stop offset="0.13" stop-color="#383838" />
      <stop offset="0.381" stop-color="#606060" />
      <stop offset="0.725" stop-color="#a1a1a1" />
      <stop offset="0.9" stop-color="#c4c4c4" />
    </linearGradient>
    <linearGradient id="aef8a74b-f787-4cc1-826b-be6eacf6e7b1" x1="65.58" y1="122.845" x2="71.907" y2="50.524"
      gradientUnits="userSpaceOnUse">
      <stop offset="0" stop-color="#0f0f0f" />
      <stop offset="0.124" stop-color="#3b3b3b" />
      <stop offset="0.257" stop-color="#636363" />
      <stop offset="0.395" stop-color="#858585" />
      <stop offset="0.535" stop-color="#9e9e9e" />
      <stop offset="0.68" stop-color="#b1b1b1" />
      <stop offset="0.831" stop-color="#bbb" />
      <stop offset="1" stop-color="#bfbfbf" />
    </linearGradient>
    <linearGradient id="a0255b3d-4384-4b1e-8a25-22c5cc4dd615" x1="86.558" y1="95.857" x2="148.361" y2="60.176"
      gradientUnits="userSpaceOnUse">
      <stop offset="0" stop-color="#292929" />
      <stop offset="0.206" stop-color="#5f5f5f" />
      <stop offset="0.487" stop-color="#a3a3a3" />
      <stop offset="0.722" stop-color="#d5d5d5" />
      <stop offset="0.9" stop-color="#f4f4f4" />
      <stop offset="1" stop-color="#fff" />
    </linearGradient>
    <linearGradient id="bf67adec-445d-4d18-809a-30909d71787b" x1="141.402" y1="142.746" x2="129.196" y2="43.335"
      gradientUnits="userSpaceOnUse">
      <stop offset="0.059" stop-color="#4d4d4d" />
      <stop offset="0.601" stop-color="#b3b3b3" />
      <stop offset="0.78" stop-color="#d6d6d6" />
    </linearGradient>
  </defs>
  <path fill="#e6e7e8"
    d="M151.075,0H32.51C14.534,0,0,14.907,0,33.345v116.9c0,18.438,14.534,33.345,32.51,33.345H151.075c17.976,0,32.51-14.907,32.51-33.345V33.345C183.585,14.907,169.051,0,151.075,0Z" />
  <path class="e20763e3-efa2-4738-ba2e-da62bbeed542"
    d="M148.206,56.692c-.139,1.938-.317,3.873-.517,5.805q-.351,3.393-.8,6.774-.444,3.31-.969,6.608-.771,4.866-1.744,9.7-1.671,8.34-3.871,16.557c-.466,1.731-.965,3.454-1.459,5.178a3.785,3.785,0,0,0-.075.416,12.822,12.822,0,0,0-.544,1.71,226.009,226.009,0,0,1-8.249,23.254c-.049.116-.082.238-.123.357.009.036.021.066.032.1-.011-.032-.023-.062-.032-.1a9.053,9.053,0,0,0-.573,1.246,84.821,84.821,0,0,1-3.837,7.826,12.772,12.772,0,0,1-1.947,2.79.155.155,0,0,0-.036.138.128.128,0,0,0,.06.044,1.7,1.7,0,0,0,.473.016c6.186-.2,16.5,0,24.756,0V48.145C148.712,48.186,148.408,53.887,148.206,56.692ZM129.92,133.233a.643.643,0,0,0,.12.176A.643.643,0,0,1,129.92,133.233Z" />
  <path class="b74bf3b3-5c12-4a31-ac71-57ffe66069dd"
    d="M61.517,90.778c-.825-1.44-1.632-2.89-2.443-4.338-2.557-4.565-12.39-22.715-14.755-27.221C41.491,53.83,35.878,42.6,35.789,42.4c-.129-.29-.587-1.282-.751-1.641l-.195-.014V145.868l.385-.472c.071-.123.141-.246.214-.368q3.34-5.524,6.572-11.113c.887-1.535,2.241-3.909,2.963-5.226C47.8,123.533,52.5,114.61,55.5,107.653c2.263-5.241,4.282-10.574,6.1-15.983A.992.992,0,0,0,61.517,90.778Z" />
  <path class="b1c1a4ce-b6f3-493d-8930-1b290c1112e7"
    d="M63.349,94.874a2.835,2.835,0,0,0-.472-1.736c-.19-.27-.717-1.082-.717-1.082s-2.284,7.6-3.194,10.078c-1.7,4.645-5.735,13.7-8,18.1-1.506,2.93-4.319,7.865-6.505,11.458-2.762,4.538-5.68,8.974-8.819,13.263-.119.163-.21.358-.417.438l-.385.472c-.033.151.084.092.142.093.965,0,2.172.02,2.9,0,3.371-.088,11.347-.583,13.464-.834a57.322,57.322,0,0,0,6.3-1.069,18.831,18.831,0,0,0,4.715-1.9,2.135,2.135,0,0,0,.991-1.912C63.325,131.7,63.328,101.008,63.349,94.874Z" />
  <path class="ba2ac766-63d8-4d6c-a0da-a5906bc47608"
    d="M102.532,123.728c-.034-.1-34.388-85.931-34.372-86.114-.127,0-17.317,1.5-18.527,1.614-1.461.138-13.607,1.418-14.6,1.531.173.365.548,1.238.751,1.641,10.565,20.95,45.443,81.6,45.666,82,.492.882.319.769,1.306.77q10.164.01,20.327.011l.017-.07C103.071,125.069,102.689,124.151,102.532,123.728Z" />
  <path class="b682f0b3-d13a-407e-96d7-9bb3f1c31651"
    d="M115.292,40.77c-.719,0-.607-.071-.887.6C113.739,42.954,92.314,94.4,92.314,94.4s10.3,29.149,10.218,29.33c.157.423.539,1.341.573,1.378.455-.66,45.438-83.825,45.643-84.172v-.189C148.416,40.749,126.112,40.765,115.292,40.77Z" />
  <path class="b6891595-2ad6-4727-99f2-4d0f2f766dd4"
    d="M121.676,92.688a2.29,2.29,0,0,0-.364,1.291c.008,5.752,0,37.132,0,46.667a1.579,1.579,0,0,0,.132.643c.477,1.1,1.486,3.457,1.525,3.525.122.216.184.229.347.051a4.357,4.357,0,0,0,.544-.831,56.9,56.9,0,0,0,2.642-5.618c2.063-4.861,3.905-9.807,5.647-14.79,3.389-9.7,9.361-31.163,9.489-32.025.365-1.242,3-13.078,3.848-17.771q.888-4.895,1.574-9.822c.386-2.785,1.062-10.32,1.435-13.758.057-.527.255-2.1.255-2.1V40.934C148.543,41.281,122.143,91.956,121.676,92.688Z" />
</svg>