<svg role="img" viewBox="0 0 24 24" xmlns="http://www.w3.org/2000/svg">
  <!-- Created by Alex Tamayo -->
  <title>Mocha</title>
  <path fill="#e6e7e8"
    d="M15.364,11.1H8.736a.5.5,0,0,0-.5.5c.051,1.406.252,5.424,1.959,7.432a.455.455,0,0,0,.351.149h2.963a.671.671,0,0,0,.4-.149C15.615,16.971,15.865,13,15.865,11.6A.5.5,0,0,0,15.364,11.1Zm-1.758,7.33a.434.434,0,0,1-.3.151H10.8a.358.358,0,0,1-.3-.151,7.2,7.2,0,0,1-1.254-2.811,12.3,12.3,0,0,0,4.568-.2c1.205-.452,1.256-.9,1.256-.9A8.055,8.055,0,0,1,13.606,18.427Z" />
  <path fill="#e6e7e8"
    d="M19.75,0H4.25A4.3,4.3,0,0,0,0,4.359V19.641A4.3,4.3,0,0,0,4.25,24h15.5A4.3,4.3,0,0,0,24,19.641V4.359A4.3,4.3,0,0,0,19.75,0Zm-6.8,3.364c-.251.351.05,1.205.7,2.209a2.1,2.1,0,0,1-.7,2.963A2.841,2.841,0,0,0,12.4,6.828C11.2,5.021,12.3,4.167,12.954,3.364ZM10.946,5.222c-.2.2,0,.8.451,1.455a1.414,1.414,0,0,1-.451,2.01,2.023,2.023,0,0,0-.352-1.1C9.791,6.327,10.494,5.774,10.946,5.222Zm3.515,15.264a.457.457,0,0,1-.352.15H9.891a.456.456,0,0,1-.351-.15C7.029,17.624,6.778,11.75,6.778,10.042a.5.5,0,0,1,.5-.5h9.44a.5.5,0,0,1,.5.5C17.222,11.8,16.971,17.674,14.461,20.486Z" />
</svg>