<svg role="img" viewBox="0 0 185 185" xmlns="http://www.w3.org/2000/svg">
    <title>Nest.Js</title>
    <!-- Created by github.com/AlexTamayo -->
    <defs>
        <style>
            .b058a693-201f-4bf1-b859-75af92f75499 {
                fill: #e6e7e8;
            }
        </style>
    </defs>
    <g id="b28b72bd-867c-4e92-b034-db8ef23b89e0" data-name="Layer 1">
        <path class="b058a693-201f-4bf1-b859-75af92f75499"
            d="M151.075,0H32.51C14.534,0,0,14.907,0,33.345v116.9c0,18.438,14.534,33.345,32.51,33.345H151.075c17.976,0,32.51-14.907,32.51-33.345V33.345C183.585,14.907,169.051,0,151.075,0Zm-47,23.935a7.887,7.887,0,0,1,4.214,1.214c1.606,1.142,3.641,2.785,3.534,5.248-1.392,2.821-8.926,4.178-7.569,13.211a4.29,4.29,0,0,1-.429-.785,7.633,7.633,0,0,1-.5-7.034c.679-1.857,1.643-2.25,1.5-5.392a3.893,3.893,0,0,0-.071-.642c-.036-.25-.107-.429-.143-.679a7.863,7.863,0,0,0-3.321-4.641A8.752,8.752,0,0,1,104.071,23.935Zm45.2,110.544a56.841,56.841,0,0,0-1.035-17.21,56.116,56.116,0,0,1-24.565,38.276,57,57,0,0,0,9.6-22.959,57.045,57.045,0,0,1-33.741,26.958,58.745,58.745,0,0,1-12.176,2.107,57.187,57.187,0,0,0,22.173-18.1,67.721,67.721,0,0,1-10.354,3.428c-.215.071-.429.107-.643.178-.25.036-.5.107-.75.143-.178.036-.321.071-.5.107a6.124,6.124,0,0,1-.785.179c-.928.178-1.857.357-2.785.5h-.036l-1.5.214h-.036l-.107-.214c.285-.179.535-.357.785-.536.072-.071.179-.107.25-.179.286-.214.572-.428.857-.606a33.79,33.79,0,0,0,10.033-12c.036-.036.036-.072.072-.108a1.794,1.794,0,0,0,.107-.25c.178-.321.321-.678.464-1h.036c.142-.357.285-.679.428-1.036.143-.321.25-.678.393-1.035s.25-.679.392-1.036q.162-.536.322-1.071a.11.11,0,0,1,.036-.071c.071-.322.178-.643.286-1v-.107a9.757,9.757,0,0,0,.249-.964c0-.036.036-.107.036-.143l.214-.964v-.107c.072-.322.143-.679.214-1V124.8c.036-.357.107-.679.143-1.036a.979.979,0,0,0,.036-.321c.036-.286.071-.536.107-.821a.982.982,0,0,1,.036-.322c0-.285.036-.535.036-.785a2.244,2.244,0,0,0,.035-.464c0-.25.037-.465.037-.715v-.5c0-.215.035-.429.035-.643,0-.179-.035-.393-.035-.571v-.572c0-.393-.036-.785-.072-1.178a8.957,8.957,0,0,0-.071-.928v-.143c-.036-.286-.072-.607-.143-.929v-.035c-.072-.679-.214-1.357-.322-2-.071-.321-.142-.607-.214-.928a33.962,33.962,0,0,1-31.135,28.993,34.569,34.569,0,0,1-9-.643v-.036c-1.071-.286-3.5-.964-5.784-1.714a33.623,33.623,0,0,1-4.82-2.392s.035-.036.071-.071c.607-.465,2.785-.929,4.928-1.321-5.678-3.678-10.641-16.389-2.321-21.816.25-.108.464-.25.678-.358.25-.107.464-.214.714-.321a6.28,6.28,0,0,1,.75-.25,5.658,5.658,0,0,1,.75-.143,2.8,2.8,0,0,1,.785-.107c.179,0,.357-.036.536-.036a5.785,5.785,0,0,1,.785.072,2.735,2.735,0,0,1,.75.107,5.822,5.822,0,0,1,.75.178c.107.036.178.072.286.108.142.035.321.107.464.142a4.111,4.111,0,0,1,.678.358c1.107.821,1.107,2.213.5,3.927a7.954,7.954,0,0,0-.428.75,5.941,5.941,0,0,0-.25.75,5.666,5.666,0,0,0-.179.75v.535a5.488,5.488,0,0,0,.036.786,2.963,2.963,0,0,0,.214.749,6.39,6.39,0,0,0,.286.75c.107.143.143.357.285.464a9.975,9.975,0,0,0,8.57,3.857,23.1,23.1,0,0,0,4.427-9,22.888,22.888,0,0,1,.357,7.141c2.928-2.107,4.749-5.5,5.82-8.141,2.178-.535,6.927,1.607,7.391,5.463A41.265,41.265,0,0,0,42.873,85.1c-1.857,3.071-4,5.856-4.392,4.963-.357-.857-.214-3.749,0-6.213-1.571,2.5-3.142,4.678-3.463,3.964a14.2,14.2,0,0,1-.143-4.392c-.143-.036-.321-.072-.464-.107-.072-.036-.107-.036-.143-.072a4.081,4.081,0,0,1-.714-.25,5.879,5.879,0,0,1-.822-.392,5.79,5.79,0,0,1-.785-.464,8.006,8.006,0,0,1-.643-.5.125.125,0,0,1-.071-.036c-.25-.214-.464-.393-.678-.607s-.429-.464-.608-.679l-.535-.749c-.143-.25-.286-.5-.429-.786a.83.83,0,0,1-.107-.178c-.107-.215-.178-.429-.285-.643a4.727,4.727,0,0,1-.286-.857,7.257,7.257,0,0,1-.179-.857.327.327,0,0,1-.035-.179c-.036,0-.071-.035-.108-.035-.213-.107-.392-.179-.571-.286a8.314,8.314,0,0,1-2.178-1.571,5.173,5.173,0,0,1-.678-.571c-.214-.179-.429-.393-.607-.571a7.328,7.328,0,0,1-.464-.643,6.166,6.166,0,0,1-.393-.643v-.036a4.856,4.856,0,0,1-.25-.642,3.875,3.875,0,0,1-.143-.679,2.074,2.074,0,0,1-.035-.464,4.8,4.8,0,0,1,.071-.714c.036-.214.036-.643.107-.964,0-.036.035-.071.035-.107a7.419,7.419,0,0,1,.179-.857c.107-.322.215-.643.321-.928a9.97,9.97,0,0,1,.394-.929,6.3,6.3,0,0,1,.5-.821c.143-.286.357-.536.536-.821.178-.25.392-.464.607-.714a6.063,6.063,0,0,1,.714-.643,5.778,5.778,0,0,1,.714-.607c.25-.179.535-.321.785-.5a9.176,9.176,0,0,1,.857-.393l.857-.321c.286-.071.572-.143.893-.214a7.559,7.559,0,0,1,.892-.107,39.935,39.935,0,0,0,4.356-1.036c.786-.25,1.572-.535,2.321-.857a21.587,21.587,0,0,0,2.25-1.071c.75-.428,1.428-.857,2.142-1.357a20.284,20.284,0,0,0,2-1.571,21.181,21.181,0,0,0,1.821-1.749c.035-.036.071-.072.107-.107.285-.286.535-.572.821-.857.036-.072.107-.108.143-.179.214-.214.428-.428.607-.643.071-.071.179-.142.25-.214.178-.214.357-.393.536-.571.035,0,.035-.036.071-.071.214-.215.428-.429.642-.607.036-.036.036-.072.072-.072.214-.214.428-.393.642-.607.036-.036.108-.071.143-.143.179-.143.357-.321.536-.464.071-.036.143-.107.214-.143l.536-.428.071-.072a8.15,8.15,0,0,1,.678-.5c.036-.036.072-.036.107-.072.215-.178.465-.321.715-.5a8.912,8.912,0,0,1,.857-.535c.285-.179.607-.357.928-.536a3.384,3.384,0,0,0,.321-.178c.215-.108.465-.25.715-.357.321-.179.713-.393,1.106-.572a1.778,1.778,0,0,1,.25-.107c.322-.178.643-.321,1-.5.036-.035.107-.035.179-.071L59.44,43c.5-.214,1-.464,1.535-.678l1.607-.428c1.035-.25,2.106-.5,3.213-.715.536-.107,1.072-.214,1.607-.285,2.178-.357,4.356-.643,6.534-.786,1.536-.107,3.106-.178,4.678-.178a63.917,63.917,0,0,1,6.391.321c.071,0,.107.036.179.036,2.177.214,4.356.535,6.5.964l2.249.535c1.393.322,2.75.679,4.142,1.072l8.212,3.177c-.071-.142-.179-.321-.25-.5-.107-.285-.178-.571-.285-.856a7.3,7.3,0,0,1-.179-.857,4.079,4.079,0,0,1-.107-.893,3.853,3.853,0,0,1-.036-.643c0-.285.036-.607.036-.892.036-.143.036-.286.071-.429s.036-.321.072-.464c.071-.286.143-.571.249-.893a7.5,7.5,0,0,1,.287-.821c.142-.286.249-.535.392-.821.143-.25.321-.5.5-.75a5.359,5.359,0,0,1,.535-.714,5.811,5.811,0,0,1,.643-.678,15.61,15.61,0,0,1,1.393-1.107c.785-.536,1.642-.964,2.392-1.536.25-.178.464-.392.678-.571v-.036a5.415,5.415,0,0,0,.643-.642c.179-.214.357-.464.535-.714l.215-.322c.107-.143.179-.285.285-.428.144-.286.25-.536.393-.821a8.279,8.279,0,0,0,.286-.857,7.978,7.978,0,0,0,.25-.857c.035-.286.035-.643.071-.929a4.156,4.156,0,0,1,.072-1.035h0a13.9,13.9,0,0,1,3.392,1.5,6.6,6.6,0,0,1,.714.357c1.678,1.071,3.356,2.249,4.963,3.5.321.286.643.607.928.893.572.607,1.107,1.213,1.642,1.821.5.642.965,1.285,1.429,1.963.428.679.821,1.393,1.214,2.107.357.714.714,1.464,1,2.214s.535,1.535.785,2.285c.215.785.393,1.571.536,2.392.107.786.214,1.571.285,2.392.036.572.072,1.143.072,1.714,0,.786-.072,1.607-.143,2.428-.072.786-.214,1.571-.357,2.392-.179.786-.357,1.571-.607,2.321-.25.786-.536,1.536-.857,2.285s-.678,1.464-1.071,2.178c-.322.572-.679,1.143-1.036,1.714-.071.107-.143.25-.214.357q-.7.965-1.5,1.928a29.323,29.323,0,0,1-3.5,3.357c-.644.5-1.322.964-2,1.428-.714.428-1.393.821-2.143,1.178a21.468,21.468,0,0,1-2.249,1c-.75.286-1.535.535-2.321.75s-1.571.392-2.392.535c-.786.143-1.571.215-2.356.286h.035a24,24,0,0,0,4.821.964c.785.072,1.606.143,2.427.143.572,0,1.143-.036,1.714-.071.786-.072,1.607-.143,2.428-.286.786-.143,1.607-.321,2.392-.536s1.571-.464,2.321-.75c.75-.321,1.5-.642,2.25-1,.714-.357,1.428-.786,2.106-1.214a19.937,19.937,0,0,0,2-1.393c.285-.25.535-.464.821-.714.357-.285.678-.571,1.036-.892.571-.572,1.142-1.143,1.677-1.786.5-.607,1-1.249,1.465-1.928.464-.642.892-1.357,1.285-2.035.393-.714.75-1.464,1.071-2.178.322-.75.607-1.535.857-2.285.215-.786.428-1.571.607-2.357.143-.785.25-1.571.357-2.392.036-.428.071-.857.071-1.285.036.035.036.035.036.071,0-.036,0-.036.036-.071,0,.071.036.107.071.178C151.417,61.247,175.054,98.523,149.274,134.479Z" />
    </g>
</svg>