<svg role="img" viewBox="0 0 185 185" xmlns="http://www.w3.org/2000/svg">
    <title>Next.Js</title>
    <!-- Created by github.com/AlexTamayo -->
    <defs>
        <style>
            .a655523e-70ff-427b-932b-cace87af412a {
                fill: #e6e7e8;
            }
        </style>
    </defs>
    <g id="ba4a6dc8-4b2c-4434-b012-0a0434a03eeb" data-name="Layer 1">
        <path class="a655523e-70ff-427b-932b-cace87af412a"
            d="M151.075,0H32.51C14.534,0,0,14.907,0,33.345v116.9c0,18.438,14.534,33.345,32.51,33.345H151.075c17.976,0,32.51-14.907,32.51-33.345V33.345C183.585,14.907,169.051,0,151.075,0Zm-77.4,81.584H52.889v7.7H69.6V94.07H52.889v7.908H73.675v4.787H41.464L22.5,83.191v23.561H17.354V76.785h6.429l23.962,29.756V81.584h0V76.8H73.675ZM86.623,106.8h-6.75L90.16,94.025l3.371,4.191ZM104,106.777,79.892,76.81h6.731l8.7,10.808L104,76.844l6.731-.011L98.7,91.8l12.057,14.973Zm27.966-.012h-5.144V81.584h-10.5V76.8h25.932v4.786H131.968Zm12.611-.85a1.4,1.4,0,0,1-.5.485,1.287,1.287,0,0,1-.669.182,1.333,1.333,0,0,1-.965-.392,1.262,1.262,0,0,1-.4-.951,1.249,1.249,0,0,1,.4-.938,1.332,1.332,0,0,1,.965-.391,1.317,1.317,0,0,1,.948.391,1.274,1.274,0,0,1,.412.938A1.3,1.3,0,0,1,144.579,105.915Zm9.89-3.176a4.042,4.042,0,0,1-.519,2.077,3.45,3.45,0,0,1-1.436,1.336,4.674,4.674,0,0,1-2.136.467,4.911,4.911,0,0,1-2-.395,3.214,3.214,0,0,1-1.407-1.167,3.359,3.359,0,0,1-.52-1.927h2.283a1.7,1.7,0,0,0,.226.872,1.453,1.453,0,0,0,.607.56,1.979,1.979,0,0,0,.9.2,1.777,1.777,0,0,0,.934-.23,1.456,1.456,0,0,0,.585-.68,2.778,2.778,0,0,0,.206-1.109V93.957h2.279Zm11.194,2.132a3.743,3.743,0,0,1-1.644,1.3,6.51,6.51,0,0,1-2.6.467,6.623,6.623,0,0,1-2.562-.453,3.634,3.634,0,0,1-2.356-3.424h2.259a1.89,1.89,0,0,0,.408,1.085,2.189,2.189,0,0,0,.937.646,3.766,3.766,0,0,0,1.3.213,3.634,3.634,0,0,0,1.317-.223,2.058,2.058,0,0,0,.885-.622,1.453,1.453,0,0,0,.328-.934,1.2,1.2,0,0,0-.289-.81,2.224,2.224,0,0,0-.795-.536,8.151,8.151,0,0,0-1.192-.388l-1.443-.364a5.783,5.783,0,0,1-2.471-1.206,2.73,2.73,0,0,1-.906-2.15,3.17,3.17,0,0,1,.61-1.933,3.965,3.965,0,0,1,1.659-1.288,5.871,5.871,0,0,1,2.384-.46,5.663,5.663,0,0,1,2.366.46,3.863,3.863,0,0,1,1.6,1.274,3.222,3.222,0,0,1,.6,1.869h-2.209a1.659,1.659,0,0,0-.725-1.244,2.853,2.853,0,0,0-1.663-.446,3.224,3.224,0,0,0-1.23.213,1.854,1.854,0,0,0-.788.58,1.416,1.416,0,0,0-.278.835,1.23,1.23,0,0,0,.184.676,1.525,1.525,0,0,0,.5.485,3.4,3.4,0,0,0,.7.333q.387.133.773.226l1.189.292a8.25,8.25,0,0,1,1.384.447,4.9,4.9,0,0,1,1.2.707,3.168,3.168,0,0,1,.836,1.03,3.062,3.062,0,0,1,.31,1.415A3.333,3.333,0,0,1,165.663,104.871Z" />
    </g>
</svg>