<svg role="img" viewBox="0 0 24 24" xmlns="http://www.w3.org/2000/svg">
  <!-- Created by Alex Tamayo -->
  <title>Node.Js</title>
  <path fill="#e6e7e8"
    d="M19.75,0H4.25A4.3,4.3,0,0,0,0,4.359V19.641A4.3,4.3,0,0,0,4.25,24h15.5A4.3,4.3,0,0,0,24,19.641V4.359A4.3,4.3,0,0,0,19.75,0Zm1.665,16.621A1.645,1.645,0,0,1,20.6,18.04l-7.781,4.493a1.633,1.633,0,0,1-1.634,0L8.585,21c-.387-.216-.2-.293-.07-.339a5.191,5.191,0,0,0,1.175-.534.2.2,0,0,1,.192.015l2,1.185a.257.257,0,0,0,.241,0L19.9,16.832a.246.246,0,0,0,.119-.211V7.641a.251.251,0,0,0-.121-.214L12.12,2.94a.244.244,0,0,0-.24,0L4.1,7.428a.251.251,0,0,0-.123.213v8.98a.239.239,0,0,0,.123.208l2.132,1.232c1.156.578,1.865-.1,1.865-.788V8.407a.223.223,0,0,1,.226-.224h.986a.225.225,0,0,1,.226.224v8.866a2.156,2.156,0,0,1-2.3,2.429,3.324,3.324,0,0,1-1.792-.488L3.4,18.04a1.64,1.64,0,0,1-.816-1.419V7.641A1.64,1.64,0,0,1,3.4,6.223l7.781-4.5a1.7,1.7,0,0,1,1.635,0l7.781,4.5a1.642,1.642,0,0,1,.817,1.418Zm-7.422-3.786c-2.13-.211-3.446-.682-3.446-2.385,0-1.57,1.323-2.506,3.542-2.506,2.493,0,3.726.865,3.883,2.721a.225.225,0,0,1-.224.245h-1.01a.224.224,0,0,1-.218-.176c-.243-1.077-.832-1.422-2.431-1.422-1.789,0-2,.624-2,1.091,0,.566.246.731,2.662,1.05,2.391.316,3.527.764,3.527,2.445,0,1.7-1.414,2.667-3.88,2.666C11,16.564,10.282,15,10.282,13.69a.223.223,0,0,1,.225-.224h1.006a.227.227,0,0,1,.224.19c.152,1.025.605,1.542,2.664,1.542,1.639,0,2.337-.371,2.337-1.241C16.738,13.457,16.541,13.084,13.993,12.835Z" />
</svg>