<svg role="img" viewBox="0 0 24 24" xmlns="http://www.w3.org/2000/svg">
  <!-- Created by github.com/AlexTamayo -->
  <title>Photoshop</title>
  <path fill="#e6e7e8"
    d="M9.7,8.8a2.934,2.934,0,0,0-1.18-.2c-.26,0-.49,0-.68.01a2.29,2.29,0,0,0-.41.01v3.36c.14.01.27.02.39.02h.53a3.735,3.735,0,0,0,1.15-.18,1.72,1.72,0,0,0,.82-.53,1.545,1.545,0,0,0,.31-1.03,1.646,1.646,0,0,0-.23-.89A1.45,1.45,0,0,0,9.7,8.8Z" />
  <path fill="#e6e7e8"
    d="M19.75,0H4.25A4.3,4.3,0,0,0,0,4.359V19.641A4.3,4.3,0,0,0,4.25,24h15.5A4.3,4.3,0,0,0,24,19.641V4.359A4.3,4.3,0,0,0,19.75,0ZM12.213,12.33A3.418,3.418,0,0,1,10.6,13.55a6.481,6.481,0,0,1-2.25.34c-.24,0-.4,0-.5-.01s-.24-.01-.43-.01v3.209a.125.125,0,0,1-.11.141H5.374c-.08,0-.12-.041-.12-.131V6.8c0-.07.03-.11.1-.11.17,0,.33,0,.56-.01s.49-.01.76-.02.56-.01.87-.02.61-.01.91-.01a5.88,5.88,0,0,1,2.06.31,3.571,3.571,0,0,1,1.34.82,3.184,3.184,0,0,1,.73,1.14,3.851,3.851,0,0,1,.229,1.3A3.561,3.561,0,0,1,12.213,12.33ZM19.3,16.22a2.527,2.527,0,0,1-1.12.891,4.6,4.6,0,0,1-1.811.318,6.878,6.878,0,0,1-1.359-.129,4.074,4.074,0,0,1-1.02-.32.2.2,0,0,1-.111-.189v-1.74a.111.111,0,0,1,.041-.09.076.076,0,0,1,.09.01,4.253,4.253,0,0,0,1.24.49,4.644,4.644,0,0,0,1.18.15,1.906,1.906,0,0,0,.83-.141.465.465,0,0,0,.27-.42.528.528,0,0,0-.24-.4,4.348,4.348,0,0,0-.979-.471,6.174,6.174,0,0,1-1.42-.719,2.625,2.625,0,0,1-.761-.85,2.158,2.158,0,0,1-.229-1.021,2.343,2.343,0,0,1,.341-1.21,2.462,2.462,0,0,1,1.049-.92,3.884,3.884,0,0,1,1.769-.349,8.621,8.621,0,0,1,1.24.09,3.519,3.519,0,0,1,.86.23.179.179,0,0,1,.1.09.5.5,0,0,1,.02.12v1.63a.123.123,0,0,1-.05.1.266.266,0,0,1-.18,0,3.539,3.539,0,0,0-.96-.34,5.271,5.271,0,0,0-1.12-.13,2.024,2.024,0,0,0-.6.07.516.516,0,0,0-.31.2.53.53,0,0,0-.08.27.44.44,0,0,0,.1.26,1.116,1.116,0,0,0,.34.27c.229.12.47.23.709.33a7.228,7.228,0,0,1,1.541.73,2.308,2.308,0,0,1,.789.83,2.152,2.152,0,0,1,.23,1.029A2.321,2.321,0,0,1,19.3,16.22Z" />
</svg>