<svg role="img" viewBox="0 0 24 24" xmlns="http://www.w3.org/2000/svg">
  <!-- Created by github.com/AlexTamayo -->
  <title>Postgresql</title>
  <path fill="#e6e7e8"
    d="M10.538,8.5a.948.948,0,0,1,.182.041.659.659,0,0,0-.151-.054,2.577,2.577,0,0,0-1.7.476l.005.091a10.793,10.793,0,0,1-.055,2.169,1.97,1.97,0,0,0,.514,1.651,1.659,1.659,0,0,0,1.084.52c.054-.192.128-.393.206-.6l.043-.118c.049-.131.105-.256.166-.389a4.441,4.441,0,0,0,.223-3.244.229.229,0,0,0-.007-.028.63.63,0,0,1-.6.32A.694.694,0,0,1,10,9.059a.417.417,0,0,1-.1-.292.274.274,0,0,1,.113-.186A.728.728,0,0,1,10.538,8.5Z" />
  <path fill="#e6e7e8"
    d="M10.191,14.178l.027-.035a2.228,2.228,0,0,1-.7-.215c-.167.181-.453.494-.782.871a2.152,2.152,0,0,1,.477-.143C9.932,14.506,9.966,14.462,10.191,14.178Z" />
  <path fill="#e6e7e8"
    d="M11.262,14.273c-.1-.038-.11-.046-.153-.012a.436.436,0,0,1-.064.1c-.107.12-.184.218-.252.3-.315.4-.472.55-1.386.741a1.834,1.834,0,0,0,2.029-.676.252.252,0,0,0,.012-.205A.4.4,0,0,0,11.262,14.273Z" />
  <path fill="#e6e7e8"
    d="M17.6,7.969a.478.478,0,0,1-.007.158,4.92,4.92,0,0,1-.08.954,6.152,6.152,0,0,0-.081.75,5.642,5.642,0,0,0,.061.837,4.7,4.7,0,0,1-.012,1.708c1.588-2.84,2.057-5.717,1.636-6.507a.442.442,0,0,0-.037-.055,4.079,4.079,0,0,0-3.286-1.55,6.213,6.213,0,0,0-1.019.064,5.6,5.6,0,0,1,1.583,1.291A5.422,5.422,0,0,1,17.6,7.969Z" />
  <path fill="#e6e7e8"
    d="M8.8,13.386a2.718,2.718,0,0,1-.717-2.271A9.914,9.914,0,0,0,8.129,9.1c-.007-.119-.012-.2-.012-.263A6.386,6.386,0,0,1,9.4,4.855,7.873,7.873,0,0,0,7.24,4.5a3.132,3.132,0,0,0-1.82.486C4.655,5.531,4.3,6.554,4.377,8.031a22.322,22.322,0,0,0,.845,3.878A12.573,12.573,0,0,0,6.2,14.347c.359.617.633.814.8.87.074.022.285.093.628-.318.493-.594.969-1.119,1.252-1.426C8.854,13.445,8.824,13.416,8.8,13.386Z" />
  <path fill="#e6e7e8"
    d="M17.112,14.225c-.018-.012-.036-.024-.053-.037l-.034.009c-.2.056-.335.094-.329.51a1.929,1.929,0,0,0,.693.059,3.47,3.47,0,0,0,1.179-.243c.066-.031.128-.062.183-.093A2.473,2.473,0,0,1,17.112,14.225Z" />
  <path fill="#e6e7e8"
    d="M19.75,0H4.25A4.3,4.3,0,0,0,0,4.359V19.641A4.3,4.3,0,0,0,4.25,24h15.5A4.3,4.3,0,0,0,24,19.641V4.359A4.3,4.3,0,0,0,19.75,0ZM18.9,15.225a4.489,4.489,0,0,1-1.834.314l-.233-.022a1.236,1.236,0,0,0-.2-.03l0,.009c-.09.806-.268,2.244-.377,2.869a2.327,2.327,0,0,1-2.1,2.138,2.882,2.882,0,0,1-.608.07A1.94,1.94,0,0,1,11.7,19.159a14.567,14.567,0,0,1-.252-3.355,2.673,2.673,0,0,1-2.269.337,1.339,1.339,0,0,1-.792-.507.53.53,0,0,1-.079-.29.491.491,0,0,1,0-.053l-.093.111a1.269,1.269,0,0,1-1.438.549,2.609,2.609,0,0,1-1.272-1.313A13.1,13.1,0,0,1,4.493,12.1a22.669,22.669,0,0,1-.877-4.059c-.086-1.75.371-2.993,1.361-3.694C6.69,3.136,9.421,4.009,10.1,4.255a3.882,3.882,0,0,1,2.157-.575,5.858,5.858,0,0,1,.941.092c.106.014.216.03.328.051a6.946,6.946,0,0,1,2.131-.332h.066a4.866,4.866,0,0,1,3.935,1.84,1.365,1.365,0,0,1,.119.183c.5.89.113,2.68-.076,3.408a16.891,16.891,0,0,1-2.071,4.708,3.141,3.141,0,0,0,1.564-.057c.434-.09.714-.013.841.226a.4.4,0,0,1,.048.1h0C20.3,14.555,19.04,15.159,18.9,15.225Z" />
  <path fill="#e6e7e8"
    d="M16.024,12.605c-.023-.053-.1-.2-.186-.346-.542-.971-1.643-2.949-.9-4.008a1.91,1.91,0,0,1,1.8-.615,5.634,5.634,0,0,0-.914-1.5A4.728,4.728,0,0,0,13.06,4.507a7.285,7.285,0,0,0-.8-.054h-.068a2.938,2.938,0,0,0-1.82.559.384.384,0,0,1-.119.061,2.022,2.022,0,0,0-.181.166,4.905,4.905,0,0,0-1.16,2.838,3.732,3.732,0,0,1,1.176-.353,1.422,1.422,0,0,1,1.7,1.157,5.135,5.135,0,0,1-.271,3.707c-.056.122-.107.236-.148.346l-.037.1c-.062.168-.119.32-.163.459a.986.986,0,0,1,.377.089,1.136,1.136,0,0,1,.623.739.992.992,0,0,1,.034.162.3.3,0,0,1,.012.1c-.006.2-.01.4-.013.6a5.807,5.807,0,0,1,.232,1.884,5.234,5.234,0,0,0,.1,1.745c.02.056.039.11.056.165.165.5.32.976,1.273.772a1.725,1.725,0,0,0,1.6-1.681,3.5,3.5,0,0,1,.129-.76,1.847,1.847,0,0,0,.078-.584.355.355,0,0,1,.019-.111l.1-.309c.012-.129.026-.267.037-.39l.124.011-.124-.02a4.787,4.787,0,0,1,.073-.544c.026-.242.047-.444.054-.553-.04-.812.32-1.118.662-1.258l-.026-.031A3.53,3.53,0,0,1,16.024,12.605Z" />
  <path fill="#e6e7e8"
    d="M16.716,12.328a3.7,3.7,0,0,0,.035-1.57,6.406,6.406,0,0,1-.066-.951,6.764,6.764,0,0,1,.088-.825c.029-.187.059-.382.071-.587a3.728,3.728,0,0,0-.475-.019.419.419,0,0,1,.169.072.237.237,0,0,1,.1.16.436.436,0,0,1-.141.32.633.633,0,0,1-.359.194.533.533,0,0,1-.587-.363.237.237,0,0,1,.005-.088l-.006.008c-.473.676.547,2.5.931,3.193a4.766,4.766,0,0,1,.236.449Z" />
</svg>