<svg role="img" viewBox="0 0 24 24" xmlns="http://www.w3.org/2000/svg">
  <!-- Created by github.com/AlexTamayo -->
  <title>Permiere Pro</title>
  <path fill="#e6e7e8"
    d="M19.75,0H4.25A4.3,4.3,0,0,0,0,4.359V19.641A4.3,4.3,0,0,0,4.25,24h15.5A4.3,4.3,0,0,0,24,19.641V4.359A4.3,4.3,0,0,0,19.75,0ZM12.5,11.071a3.112,3.112,0,0,1-.884,1.382,3.917,3.917,0,0,1-2,.957,8.387,8.387,0,0,1-1.872.119c-.18-.007-.359-.008-.538-.011-.014,0-.027,0-.048.006v.093q0,1.6,0,3.206a.119.119,0,0,1-.125.132c-.058,0-.117,0-.177,0H5.088c-.14,0-.164-.025-.164-.165V6.288c0-.12.019-.141.136-.143,1.033-.02,2.066-.044,3.1-.059a6.3,6.3,0,0,1,1.968.246,3.74,3.74,0,0,1,1.6.942,3.264,3.264,0,0,1,.878,1.715A4.283,4.283,0,0,1,12.5,11.071Zm6.579-.389c0,.086-.026.12-.11.125-.155.009-.311,0-.466.013a4.062,4.062,0,0,0-1.623.412,3.15,3.15,0,0,0-.4.282.152.152,0,0,0-.058.135q0,2.535,0,5.068v.071c0,.135-.034.168-.167.168H14.339c-.229,0-.243-.015-.243-.243,0-1.848,0-3.695,0-5.542,0-.654-.026-1.307-.042-1.96,0-.125-.02-.249-.027-.374-.006-.084.026-.115.112-.115h1.755a.212.212,0,0,1,.241.181,3.273,3.273,0,0,1,.128.835c0,.022,0,.045,0,.056.212-.184.414-.38.637-.548a3.387,3.387,0,0,1,1.617-.675c.135-.017.272-.019.409-.023a.13.13,0,0,1,.151.145Q19.078,9.688,19.076,10.682Z" />
  <path fill="#e6e7e8"
    d="M9.79,8.468A2.246,2.246,0,0,0,8.656,8.12C8.334,8.1,8.01,8.1,7.687,8.1c-.173,0-.347.014-.523.022v3.46c.079,0,.151,0,.224,0a6.52,6.52,0,0,0,1.382-.048,2.53,2.53,0,0,0,1-.352,1.391,1.391,0,0,0,.615-.816,2.586,2.586,0,0,0,.068-.6A1.455,1.455,0,0,0,9.79,8.468Z" />
</svg>