<svg role="img" viewBox="0 0 24 24" xmlns="http://www.w3.org/2000/svg">
  <!-- Created by Alex Tamayo -->
  <title>React.Js</title>
  <path fill="#e6e7e8"
    d="M15.055,8.927c.2.314.4.635.594.966s.37.66.539.989c.215-.549.4-1.1.556-1.629C16.2,9.121,15.64,9.014,15.055,8.927Z" />
  <path fill="#e6e7e8"
    d="M7.013,8.363a19.251,19.251,0,0,1,2.622-.454,19.5,19.5,0,0,1,1.7-2.057A6.117,6.117,0,0,0,7.875,3.931h0a1.247,1.247,0,0,0-.475.112c-.556.326-.795,1.549-.6,3.122C6.849,7.551,6.918,7.95,7.013,8.363Z" />
  <path fill="#e6e7e8"
    d="M10.854,7.818c.375-.02.759-.028,1.146-.028s.762.012,1.133.028A16.687,16.687,0,0,0,11.987,6.5h0A16.208,16.208,0,0,0,10.854,7.818Z" />
  <path fill="#e6e7e8"
    d="M16.188,13.106c-.169.33-.346.665-.535.993s-.392.66-.594.975c.59-.084,1.159-.2,1.7-.328C16.6,14.21,16.411,13.659,16.188,13.106Z" />
  <path fill="#e6e7e8"
    d="M16.98,8.36c.091-.417.165-.825.21-1.213.19-1.574-.054-2.8-.615-3.12a.955.955,0,0,0-.47-.107v0a6.093,6.093,0,0,0-3.457,1.933A20.138,20.138,0,0,1,14.362,7.91,19.82,19.82,0,0,1,16.98,8.36Z" />
  <path fill="#e6e7e8"
    d="M8.943,15.074c-.2-.312-.4-.634-.594-.962s-.371-.66-.539-.99h0c-.214.548-.4,1.1-.556,1.628Q8.063,14.947,8.943,15.074Z" />
  <path fill="#e6e7e8"
    d="M10.145,15.22c.611.049,1.232.079,1.855.079s1.249-.03,1.862-.083c.343-.49.674-1.019.994-1.575.309-.539.594-1.091.853-1.643q-.389-.829-.857-1.64c-.321-.553-.655-1.076-1-1.566-.611-.05-1.231-.079-1.855-.079v0c-.627,0-1.248.029-1.862.083-.343.49-.674,1.018-.994,1.574-.309.54-.6,1.092-.853,1.646q.389.83.857,1.639C9.469,14.206,9.8,14.73,10.145,15.22Zm1.85-5.1A1.884,1.884,0,1,1,10.112,12,1.885,1.885,0,0,1,12,10.118Z" />
  <path fill="#e6e7e8"
    d="M8.345,9.9c.188-.334.39-.659.592-.976-.589.087-1.158.2-1.7.325a17.224,17.224,0,0,0,.57,1.64C7.978,10.563,8.155,10.233,8.345,9.9Z" />
  <path fill="#e6e7e8"
    d="M16.987,15.638h0a19.248,19.248,0,0,1-2.622.455,19.48,19.48,0,0,1-1.7,2.056,6.108,6.108,0,0,0,3.462,1.92.913.913,0,0,0,.475-.107c.556-.327.795-1.55.6-3.124A11.342,11.342,0,0,0,16.987,15.638Z" />
  <path fill="#e6e7e8"
    d="M18.793,9.915c-.363-.152-.751-.293-1.159-.419v0a19.523,19.523,0,0,1-.914,2.5,20.157,20.157,0,0,1,.927,2.511c.4-.128.788-.264,1.141-.416,1.46-.619,2.4-1.438,2.407-2.085S20.252,10.539,18.793,9.915Z" />
  <path fill="#e6e7e8"
    d="M19.75,0H4.25A4.3,4.3,0,0,0,0,4.359V19.641A4.3,4.3,0,0,0,4.25,24h15.5A4.3,4.3,0,0,0,24,19.641V4.359A4.3,4.3,0,0,0,19.75,0ZM17.886,15.392c.6,2.613.338,4.7-.819,5.362a1.852,1.852,0,0,1-.932.232c-1.133,0-2.618-.8-4.117-2.193C10.517,20.2,9.033,21,7.9,21a1.818,1.818,0,0,1-.929-.232c-1.16-.667-1.425-2.752-.832-5.375C3.567,14.611,1.891,13.342,1.891,12S3.559,9.4,6.123,8.61c-.6-2.613-.339-4.695.82-5.363a1.859,1.859,0,0,1,.932-.234c1.133,0,2.617.8,4.117,2.192C13.492,3.805,14.975,3,16.109,3h0a1.83,1.83,0,0,1,.92.235c1.16.668,1.425,2.754.832,5.374,2.572.788,4.248,2.058,4.248,3.4S20.441,14.607,17.886,15.392Z" />
  <path fill="#e6e7e8"
    d="M7.021,15.646h0c-.091.417-.165.824-.21,1.212-.19,1.574.054,2.8.615,3.119a1,1,0,0,0,.466.112,6.077,6.077,0,0,0,3.462-1.934A20.015,20.015,0,0,1,9.639,16.1,19.989,19.989,0,0,1,7.021,15.646Z" />
  <path fill="#e6e7e8"
    d="M12,16.214c-.383,0-.763-.011-1.133-.028A16.889,16.889,0,0,0,12.009,17.5a16.208,16.208,0,0,0,1.133-1.318C12.767,16.206,12.383,16.214,12,16.214Z" />
  <path fill="#e6e7e8"
    d="M6.35,9.5c-.4.128-.789.265-1.143.416-1.459.619-2.4,1.439-2.4,2.086s.943,1.464,2.4,2.084a11.953,11.953,0,0,0,1.155.422,19.318,19.318,0,0,1,.914-2.5A19.664,19.664,0,0,1,6.35,9.5Z" />
</svg>