<svg role="img" viewBox="0 0 24 24" xmlns="http://www.w3.org/2000/svg">
  <!-- Created by github.com/AlexTamayo -->
  <title>Ruby On Rails</title>
  <path fill="#e6e7e8"
    d="M13.56,13.281c-.155-.007-.311-.007-.467,0a.215.215,0,0,0-.225.245v.792h.9c0-.024,0-.04,0-.056v-.754A.206.206,0,0,0,13.56,13.281Z" />
  <path fill="#e6e7e8"
    d="M10.155,13.3c-.206,0-.411,0-.617,0H9.47v.8c.237,0,.47,0,.7,0a.2.2,0,0,0,.107-.037.509.509,0,0,0,.041-.7A.214.214,0,0,0,10.155,13.3Z" />
  <path fill="#e6e7e8"
    d="M19.75,0H4.25A4.3,4.3,0,0,0,0,4.359V19.641A4.3,4.3,0,0,0,4.25,24h15.5A4.3,4.3,0,0,0,24,19.641V4.359A4.3,4.3,0,0,0,19.75,0ZM10.237,9.346c.157.059.3.113.451.17a.048.048,0,0,1,.024.038c0,.1-.011.2-.017.3l-.132-.05c-.1-.037-.2-.072-.3-.112a.068.068,0,0,1-.04-.047C10.223,9.554,10.23,9.459,10.237,9.346ZM8.35,9.06c.034.1.065.2.1.3l-.478.021-.094-.29Zm-2.176.484.221.337-.379.219L5.79,9.753Zm-1.989,1.5.341.3-.334.39-.381-.328Zm-1.714,2.3.568.206c-.083.2-.164.392-.247.592l-.569-.206Zm4.352,2.276a.2.2,0,0,1-.169-.215c0-.151-.026-.3-.041-.463.182.066.351.127.519.19a.051.051,0,0,1,.024.031c.035.2.07.4.105.61C7.114,15.724,6.971,15.663,6.823,15.624ZM6.7,13.664c.043-.168.087-.335.135-.516a2.488,2.488,0,0,0,.228.177.2.2,0,0,1,.1.267,2.908,2.908,0,0,0-.076.413c-.128-.1-.253-.2-.376-.3A.049.049,0,0,1,6.7,13.664Zm1.2-1.521c-.085.1-.172.2-.263.309-.072-.106-.144-.214-.215-.323a.054.054,0,0,1,0-.048c.09-.1.182-.2.28-.313.076.115.146.219.213.325C7.928,12.1,7.915,12.13,7.9,12.143Zm-1.357,1.2a5.524,5.524,0,0,0-.165,1.877c.017.237.049.474.074.714H2.571a6.837,6.837,0,0,1,.2-.928A8.958,8.958,0,0,1,4.2,12.089a7.048,7.048,0,0,1,2.449-2.1,3.746,3.746,0,0,1,1.378-.415,4.95,4.95,0,0,1,1.431.089,7.68,7.68,0,0,1,2.82,1.269,9.135,9.135,0,0,1,1.089.871l.051.049-.166.131c-.155-.106-.307-.213-.463-.316a6.066,6.066,0,0,0-1.943-.867,3.625,3.625,0,0,0-2.421.24A3.377,3.377,0,0,0,6.547,13.34Zm4.163-2.274c0,.068-.01.135-.015.2l-.486-.058.018-.309c.136.018.267.033.4.053C10.713,10.967,10.714,10.971,10.71,11.066Zm-1.533.278-.427.172-.114-.338.433-.16Zm2.446,4.592c-.428,0-.856,0-1.284,0a.143.143,0,0,1-.089-.04c-.246-.251-.489-.5-.732-.758a.317.317,0,0,1-.033-.046l-.017.01v.832H8.522V12.418H8.6c.557,0,1.114,0,1.67,0a1.189,1.189,0,0,1,.758.268,1.068,1.068,0,0,1,.4.751,1.51,1.51,0,0,1-.1.806.945.945,0,0,1-.7.574l-.024.008-.011.011,1.083,1.1C11.657,15.934,11.64,15.936,11.623,15.936Zm3.085,0H13.78v-.611h-.909v.609h-.962v-.076c0-.839-.009-1.679,0-2.518a.9.9,0,0,1,.869-.893c.339-.005.678-.007,1.017,0a.9.9,0,0,1,.883.685,1.335,1.335,0,0,1,.028.26q0,1.246,0,2.493C14.71,15.9,14.709,15.912,14.708,15.934Zm1.436,0h-.989V12.446h.989Zm2.756,0H16.562V12.447h.991v2.584H18.9Zm2.8-.585a.915.915,0,0,1-.822.587c-.536.006-1.072,0-1.608,0a.2.2,0,0,1-.032,0V15.04h1.621V14.6c-.158,0-.316,0-.473,0a3.137,3.137,0,0,1-.423-.013.89.89,0,0,1-.776-.874,2.837,2.837,0,0,1,.016-.522.912.912,0,0,1,.751-.734,1.036,1.036,0,0,1,.167-.014H21.63v.9H20.047v.415h.8a.892.892,0,0,1,.906.786A1.7,1.7,0,0,1,21.7,15.347Z" />
</svg>