<svg role="img" viewBox="0 0 24 24" xmlns="http://www.w3.org/2000/svg">
  <!-- Created by github.com/AlexTamayo -->
  <title>Ruby</title>
  <path fill="#6d6e71"
    d="M16.157,19.168,9.927,16.7s.538-.134.8-.206q.68-.186,1.339-.434c.555-.208,1.675-.745,1.675-.745l2.414,3.851s.862-5.624.932-6.074A.147.147,0,0,1,17.145,13c.354-.306.7-.617,1.027-.953a10.9,10.9,0,0,0,.886-1.023,2.665,2.665,0,0,0,.171-.239h0c-.235-.06-5.086-1.24-5.086-1.24l-.4,5.772-4.7-3.328L5.776,16.76s-.424-4.842-.437-5.023l-.011,0L3.985,13.026s-.087.332-.106.416a4.734,4.734,0,0,0-.122.738,2.105,2.105,0,0,0,.028.793,1.979,1.979,0,0,0,.46.858,3.3,3.3,0,0,0,.843.665,4.908,4.908,0,0,0,.578.232C8.234,17.537,16.157,19.168,16.157,19.168Z" />
  <path fill="#6d6e71"
    d="M20.268,7.821a4.113,4.113,0,0,1-.282,1.617,6.025,6.025,0,0,1-.263.606c-.031.058-.1.147-.145.22-.114.176-.352.521-.352.521h0c-.128-.224-2.957-4.427-2.957-4.427s1.826-.372,2.4-.5c.017,0,.461.228.478.239a2.627,2.627,0,0,1,.865.816l0,0,0,0A1.844,1.844,0,0,1,20.268,7.821Z" />
  <polygon fill="#939598" points="9.042 11.989 14.143 9.545 13.743 15.317 9.042 11.989" />
  <path fill="#bcbec0"
    d="M18.674,5.86c-.038-.031-2.124-.712-2.843-.911a3.166,3.166,0,0,0-.535-.1c.008.014.02.03.03.045.309.468.611.941.923,1.408a.2.2,0,0,1,.021.054S18.1,5.987,18.674,5.86Z" />
  <path fill="#939598"
    d="M16.27,6.359a.236.236,0,0,1-.023.078c-.379.556-2.1,3.108-2.1,3.108s4.852,1.18,5.086,1.24c-.128-.224-2.74-4.109-2.9-4.344Z" />
  <path fill="#bcbec0"
    d="M5.339,11.737c.235.015,3.629.245,3.7.252-1.084,1.584-2.166,3.162-3.265,4.769C5.756,16.509,5.352,11.918,5.339,11.737Z" />
  <path fill="#bcbec0"
    d="M16.157,19.168S9.945,16.712,9.927,16.7c.271-.07.538-.134.8-.206q.68-.186,1.339-.434c.555-.208,1.675-.745,1.675-.745Z" />
  <path fill="#939598"
    d="M16.157,19.168s.862-5.624.932-6.074A.151.151,0,0,1,17.145,13c.354-.3.7-.617,1.027-.953a10.773,10.773,0,0,0,.886-1.023c.059-.079.171-.239.171-.239l.5-.74Z" />
  <path fill="#bcbec0"
    d="M3.985,13.026s.143-.494.2-.679c.023-.084.211-.621.287-.826a13.854,13.854,0,0,1,.792-1.745l0,.289.06,1.668Z" />
  <path fill="#939598"
    d="M5.476,9.921a1.218,1.218,0,0,0,.376,1.259,1.787,1.787,0,0,0,.732.359,4.442,4.442,0,0,0,1.645.066A8.5,8.5,0,0,0,9.684,11.3a11.9,11.9,0,0,0,2.034-.821,12.365,12.365,0,0,0,1.42-.865c.192-.133.388-.259.571-.406a7.164,7.164,0,0,0,1.6-1.682,2.59,2.59,0,0,0,.46-1.193,1.176,1.176,0,0,0-.571-1.161,2.371,2.371,0,0,0-.834-.3c-.058-.009-.136-.015-.213-.02l-.117-.008a6.79,6.79,0,0,0-.889.006,10.183,10.183,0,0,0-1.028.165,17.051,17.051,0,0,0-1.724.584,15.8,15.8,0,0,0-1.524.733A16.311,16.311,0,0,0,7.19,7.515,10.55,10.55,0,0,0,6.075,8.7,3.224,3.224,0,0,0,5.476,9.921Z" />
  <path fill="#e6e7e8"
    d="M19.75,0H4.25A4.3,4.3,0,0,0,0,4.359V19.641A4.3,4.3,0,0,0,4.25,24h15.5A4.3,4.3,0,0,0,24,19.641V4.359A4.3,4.3,0,0,0,19.75,0Zm.236,9.438c-.057.155-.26.606-.26.606l-3.569,9.124h0s-7.923-1.631-10.491-2.44a4.908,4.908,0,0,1-.578-.232,3.3,3.3,0,0,1-.843-.665,1.99,1.99,0,0,1-.46-.858,2.105,2.105,0,0,1-.028-.793,4.715,4.715,0,0,1,.122-.738c.019-.084.106-.416.106-.416h0s.143-.494.2-.679c.024-.084.211-.621.287-.826a13.769,13.769,0,0,1,.792-1.745h0s.978-1.312.809-1.077l-.152.21.152-.21A10.643,10.643,0,0,1,7.19,7.515,16.311,16.311,0,0,1,8.865,6.332,15.707,15.707,0,0,1,10.39,5.6a16.949,16.949,0,0,1,1.723-.584,10.183,10.183,0,0,1,1.028-.165c.215-.022.807-.011.807-.011l1.348.015s.009.012,0,0a3.166,3.166,0,0,1,.535.1c.719.2,2.805.88,2.843.911h0c.019.006.46.227.477.238a2.627,2.627,0,0,1,.865.816l0,0,0,0a1.844,1.844,0,0,1,.25.9A4.113,4.113,0,0,1,19.986,9.438Z" />
</svg>