<svg role="img" viewBox="0 0 185 185" xmlns="http://www.w3.org/2000/svg">
    <title>Rust</title>
    <!-- Created by github.com/AlexTamayo -->
    <defs>
        <style>
            .a285991d-4c69-48b8-88d0-35c04884e4f4 {
                fill: #e6e7e8;
            }
        </style>
    </defs>
    <g id="b7af7238-b3c4-44ab-a04f-9a792fd11f97" data-name="Layer 1">
        <path class="a285991d-4c69-48b8-88d0-35c04884e4f4"
            d="M103.525,108.986c-1.381-6.647-2.687-12.926-9.757-12.926H81.257v9.219H92.451a.658.658,0,0,1,.658.658v14.486a.658.658,0,0,1-.658.658H51.159A50.843,50.843,0,0,0,55,125.618l9.085-1.439a3.951,3.951,0,0,1,4.52,3.285l1.443,9.119a50.613,50.613,0,0,0,43.491,0l1.445-9.121a3.953,3.953,0,0,1,4.52-3.284l9.085,1.439a50.843,50.843,0,0,0,3.839-4.537H112.2C106.039,121.081,104.762,114.932,103.525,108.986Z" />
        <path class="a285991d-4c69-48b8-88d0-35c04884e4f4"
            d="M103.25,80.06a3.893,3.893,0,0,0,1.711-3.095c0-2.22-2.266-4.609-7.243-4.609H81.257v9.218H97.718A9.2,9.2,0,0,0,103.25,80.06Z" />
        <path class="a285991d-4c69-48b8-88d0-35c04884e4f4"
            d="M58.87,72.356H50.254l1.223,2.4a3.952,3.952,0,0,1-1.726,5.314l-8.224,4.19a50.152,50.152,0,0,0,1.685,21.019H58.87Z" />
        <path class="a285991d-4c69-48b8-88d0-35c04884e4f4"
            d="M133.834,80.07a3.952,3.952,0,0,1-1.726-5.314l4.19-8.225a50.85,50.85,0,0,0-35.183-25.565L94.585,47.5A3.95,3.95,0,0,1,89,47.5L82.47,40.966A50.681,50.681,0,0,0,54.438,56.554h53.815c8.518,0,16.45,6.037,18.451,14.042,1.785,7.138-1.53,13.7-9.114,18.171,2.395,1.66,6.057,6.5,7.112,11.773.631,3.158,3.966,4.821,6.679,4.553,3.247-.321,5.186-2.959,5.186-7.057V95.4a.659.659,0,0,1,.658-.659h5.1c.1-1.3.169-2.619.169-3.95a51.03,51.03,0,0,0-.435-6.533Z" />
        <path class="a285991d-4c69-48b8-88d0-35c04884e4f4"
            d="M151.075,0H32.51C14.534,0,0,14.907,0,33.345v116.9c0,18.438,14.534,33.345,32.51,33.345H151.075c17.976,0,32.51-14.907,32.51-33.345V33.345C183.585,14.907,169.051,0,151.075,0Zm8.9,92.486L154.111,96c-.051.617-.106,1.233-.175,1.845l5.054,4.586a1.976,1.976,0,0,1-.661,3.322l-6.427,2.3c-.172.6-.344,1.193-.532,1.782l4.059,5.478a1.975,1.975,0,0,1-1.3,3.13l-6.769,1.007c-.282.545-.566,1.088-.863,1.623l2.922,6.183a1.976,1.976,0,0,1-1.787,2.82l-.1,0-6.856-.334c-.377.472-.758.94-1.148,1.4L141.2,137.8a1.975,1.975,0,0,1-1.916,2.454,2.02,2.02,0,0,1-.48-.058l-6.658-1.665c-.461.39-.929.771-1.4,1.148l.333,6.857a1.975,1.975,0,0,1-2.816,1.881l-6.185-2.921c-.535.3-1.078.581-1.622.863l-1.008,6.769a1.975,1.975,0,0,1-3.13,1.3l-5.478-4.058c-.589.189-1.185.361-1.782.533l-2.3,6.427a1.977,1.977,0,0,1-1.474,1.271,2.01,2.01,0,0,1-.385.038,1.983,1.983,0,0,1-1.464-.648l-4.585-5.054c-.612.068-1.227.123-1.845.174l-3.515,5.86a1.976,1.976,0,0,1-3.387,0l-3.516-5.86c-.617-.051-1.233-.106-1.845-.174l-4.584,5.054a1.976,1.976,0,0,1-3.323-.661l-2.3-6.428c-.6-.172-1.193-.343-1.782-.532l-5.477,4.058a1.975,1.975,0,0,1-3.13-1.3l-1.008-6.769c-.544-.282-1.088-.566-1.623-.863l-6.184,2.921a1.975,1.975,0,0,1-2.816-1.881l.333-6.857c-.472-.377-.939-.758-1.4-1.148L44.782,140.2a2.02,2.02,0,0,1-.48.058,1.974,1.974,0,0,1-1.916-2.454l1.664-6.658c-.39-.461-.771-.929-1.148-1.4l-6.856.334-.1,0a1.976,1.976,0,0,1-1.786-2.82l2.922-6.183c-.3-.535-.581-1.078-.863-1.623l-6.769-1.007a1.975,1.975,0,0,1-1.3-3.13l4.059-5.478c-.188-.589-.361-1.185-.532-1.782l-6.428-2.3a1.976,1.976,0,0,1-.661-3.323l5.055-4.585c-.069-.612-.124-1.228-.175-1.845l-5.859-3.516a1.975,1.975,0,0,1,0-3.387l5.859-3.515c.051-.618.106-1.234.175-1.846l-5.055-4.584a1.977,1.977,0,0,1,.661-3.324l6.428-2.3c.171-.6.344-1.193.532-1.782l-4.059-5.477a1.976,1.976,0,0,1,1.3-3.131l6.769-1.007c.282-.544.566-1.088.863-1.622l-2.922-6.184a1.975,1.975,0,0,1,1.883-2.817l6.856.333c.377-.472.758-.939,1.148-1.4l-1.664-6.659a1.975,1.975,0,0,1,2.4-2.4L51.44,43.05q.692-.585,1.4-1.147l-.333-6.858a1.975,1.975,0,0,1,2.816-1.881l6.184,2.921c.535-.3,1.079-.581,1.623-.863l1.008-6.769a1.975,1.975,0,0,1,3.13-1.3l5.477,4.059c.589-.189,1.185-.361,1.782-.533l2.3-6.427a1.975,1.975,0,0,1,3.323-.661l4.584,5.054c.612-.069,1.228-.124,1.845-.174l3.516-5.86a1.975,1.975,0,0,1,3.387,0L97,28.475c.618.05,1.233.1,1.845.174l4.585-5.054a1.975,1.975,0,0,1,3.323.661l2.3,6.427c.6.171,1.193.344,1.782.533l5.478-4.059a1.975,1.975,0,0,1,3.13,1.3l1.008,6.769c.544.282,1.087.566,1.622.863l6.185-2.921a1.975,1.975,0,0,1,2.816,1.881l-.333,6.858q.707.564,1.4,1.147l6.658-1.665a1.976,1.976,0,0,1,2.4,2.4l-1.664,6.659c.39.461.771.928,1.148,1.4l6.856-.333a1.975,1.975,0,0,1,1.883,2.817L146.5,60.508c.3.534.581,1.078.863,1.622l6.769,1.007a1.976,1.976,0,0,1,1.3,3.131l-4.059,5.477c.188.589.36,1.185.532,1.782l6.427,2.3a1.977,1.977,0,0,1,.661,3.323l-5.054,4.585c.069.612.124,1.228.175,1.846L159.97,89.1a1.975,1.975,0,0,1,0,3.387Z" />
    </g>
</svg>