<svg role="img" viewBox="0 0 24 24" xmlns="http://www.w3.org/2000/svg">
  <!-- Created by github.com/AlexTamayo -->
  <title>SASS</title>
  <path fill="#e6e7e8"
    d="M18.022,6.509C17.588,4.8,14.76,4.241,12.083,5.192A13.463,13.463,0,0,0,7.528,7.806c-1.475,1.378-1.709,2.578-1.612,3.079.341,1.77,2.766,2.927,3.763,3.785v.005c-.294.144-2.446,1.223-2.95,2.34-.54,1.177.084,2.017.492,2.125a3.033,3.033,0,0,0,3.253-1.32,3.317,3.317,0,0,0,.323-2.941,3.733,3.733,0,0,1,1.465-.083c1.681.192,2.017,1.248,1.944,1.68a1.156,1.156,0,0,1-.539.755c-.12.073-.156.1-.145.145.012.072.073.072.168.06a1.331,1.331,0,0,0,.913-1.177c.036-1.032-.949-2.183-2.7-2.16a4.33,4.33,0,0,0-1.5.205.292.292,0,0,0-.084-.084c-1.08-1.165-3.085-1.981-3-3.529.024-.564.228-2.052,3.84-3.852,2.965-1.477,5.33-1.068,5.738-.168.587,1.283-1.261,3.673-4.346,4.02a2.315,2.315,0,0,1-1.945-.492c-.167-.18-.191-.192-.251-.155-.1.048-.036.2,0,.3a1.847,1.847,0,0,0,1.117.876,5.9,5.9,0,0,0,3.6-.36c1.859-.719,3.312-2.725,2.891-4.4Zm-8.017,8.739.087-.049a2.454,2.454,0,0,1-.02,1.434l-.052.144c-.019.049-.041.1-.062.141a2.7,2.7,0,0,1-.444.648c-.559.607-1.338.838-1.672.644-.361-.21-.181-1.068.467-1.752a6.531,6.531,0,0,1,1.7-1.208Z" />
  <path fill="#e6e7e8"
    d="M19.75,0H4.25A4.3,4.3,0,0,0,0,4.359V19.641A4.3,4.3,0,0,0,4.25,24h15.5A4.3,4.3,0,0,0,24,19.641V4.359A4.3,4.3,0,0,0,19.75,0ZM12,21.6A9.6,9.6,0,1,1,21.6,12,9.6,9.6,0,0,1,12,21.6Z" />
</svg>