<svg role="img" viewBox="0 0 24 24" xmlns="http://www.w3.org/2000/svg">
  <!-- Created by github.com/AlexTamayo -->
  <title>Sequelize</title>
  <path fill="#e6e7e8"
    d="M10.333,10.383l-.328.189v2.481q1.048.6,2.094,1.209l2.094-1.21V10.586L12.1,9.363Q11.215,9.873,10.333,10.383Z" />
  <polygon fill="#e6e7e8"
    points="14.886 13.332 14.806 13.286 14.806 13.407 14.545 13.557 14.806 13.709 14.806 16.052 14.886 16.098 16.979 14.889 16.979 12.423 16.72 12.271 14.886 13.332" />
  <path fill="#e6e7e8"
    d="M9.392,12.444V10.217l1.9-1.1V8.882L9.2,7.657c-.667.381-1.339.778-1.989,1.164l-.1.061v2.465L9.2,12.555Z" />
  <path fill="#e6e7e8"
    d="M9.392,13.154l-.191.111-.058-.034L7.366,12.206l-.258.151v2.465L9.2,16.031l.191-.11V13.693l.246-.143-.246-.142Z" />
  <path fill="#e6e7e8"
    d="M12.1,14.972l-.058-.034c-.424-.246-.862-.5-1.269-.733l-.519-.3-.248.141v2.482L12.1,17.736l2.094-1.208V14.062l-.259-.151Z" />
  <polygon fill="#e6e7e8"
    points="12.793 9.058 14.806 10.235 14.806 12.576 14.886 12.623 16.979 11.414 16.979 8.949 14.886 7.724 12.793 8.933 12.793 9.058" />
  <path fill="#e6e7e8"
    d="M19.75,0H4.25A4.3,4.3,0,0,0,0,4.359V19.641A4.3,4.3,0,0,0,4.25,24h15.5A4.3,4.3,0,0,0,24,19.641V4.359A4.3,4.3,0,0,0,19.75,0Zm1.08,17.1-8.808,5.086-.058-.033L3.17,17.1V6.9l.058-.033,8.794-5.052L20.83,6.9Z" />
  <path fill="#e6e7e8"
    d="M9.917,7.305v.062l1.991,1.162v.234l.191-.11.08.046V8.578l.058-.033c.607-.348,1.236-.712,1.779-1.026l.126-.073V7.3L12.037,6.081q-.662.379-1.323.763Z" />
  <path fill="#e6e7e8"
    d="M4.169,7.478v9.043l7.851,4.51,7.811-4.51V7.478L12.02,2.969ZM17.79,15.343,12,18.637,6.272,15.378v-.067L6.209,8.657l.06-.033L12,5.362l5.79,3.3Z" />
</svg>