<svg role="img" viewBox="0 0 185 185" xmlns="http://www.w3.org/2000/svg">
    <title>SQLite</title>
    <!-- Created by github.com/AlexTamayo -->
    <defs>
        <style>
            .a65b1fb1-f7da-4251-a6fc-28b531ab8d5d {
                fill: #e6e7e8;
            }

            .f116e1fd-4e14-4c7d-8bf4-8c6df39122bd {
                fill: #404040;
            }

            .b2b1e963-35c4-42b5-8a4e-62aaccbb095d {
                fill: url(#a1bb5303-7b6b-4c50-90c0-7b301c092c89);
            }
        </style>
        <linearGradient id="a1bb5303-7b6b-4c50-90c0-7b301c092c89" x1="79.298" y1="38.589" x2="79.298" y2="123.412"
            gradientUnits="userSpaceOnUse">
            <stop offset="0" stop-color="#b3b3b3" />
            <stop offset="0.92" stop-color="#404040" />
            <stop offset="1" stop-color="#404040" />
        </linearGradient>
    </defs>
        <g id="f82068d3-8a5d-490b-bed7-c6744f96d477" data-name="Layer 1">
            <path class="a65b1fb1-f7da-4251-a6fc-28b531ab8d5d"
                d="M151.075,0H32.51C14.534,0,0,14.907,0,33.345v116.9c0,18.438,14.534,33.345,32.51,33.345H151.075c17.976,0,32.51-14.907,32.51-33.345V33.345C183.585,14.907,169.051,0,151.075,0ZM132.58,91.229c-9.174,2.948-19.865,9.459-19.865,9.459s.889-.472,4.19-1.857c2.238-.94,8.918-2.529,12.987-3.456-6.792,10.24-12.6,17.407-12.6,17.407s-11.85,4.816-15.515,16.018A215.127,215.127,0,0,1,112.4,91.089c4.441-11.869,19.279-43.918,30.243-53.819C130.61,46.857,117.468,66.932,108,91.952c-5.607,16.574-8.641,32.477-9.136,45.663-.326,8.627.42,16.107,2.256,21.815l-.849.463c-1.25-2.9-2.231-8.311-2.752-14.612a122.97,122.97,0,0,1-.306-15.107c-.06-.751-.095-1.239-.095-1.239s-1.093-7.364-2.666-13.413A28.329,28.329,0,0,0,92.125,109c-.429-.726.047-3.709,1.244-8.127a89.974,89.974,0,0,1,4.245,8.052c.668,1.885.809,2.425.809,2.425s-1.62-8.334-4.278-13.2c.583-1.966,1.279-4.139,2.066-6.462.921,1.616,3.013,5.326,3.769,7.084.07.163.133.316.179.442.107.305.2.564.279.8.426,1.237.53,1.63.53,1.63s-.158-.809-.452-2.057c-.124-.528-.279-1.148-.451-1.808A47.943,47.943,0,0,0,97.076,89.2c3.343-17.4,14.1-40.179,25.7-52.478,1-1.059,2-2.051,3.008-2.944,6.778-6.015,13.644-8.047,19.316-2.989C158.938,43.134,145.194,71.36,132.58,91.229Z" />
            <path class="f116e1fd-4e14-4c7d-8bf4-8c6df39122bd"
                d="M97.218,130.164c-.059-.751-.094-1.239-.094-1.239s-1.094-7.364-2.667-13.413a28.282,28.282,0,0,0-2.322-6.52c-.428-.726.047-3.709,1.244-8.126a89.556,89.556,0,0,1,4.246,8.051c.668,1.885.808,2.425.808,2.425s-1.62-8.334-4.278-13.2c.583-1.966,1.279-4.139,2.066-6.462.921,1.616,3.013,5.326,3.769,7.084.07.164.134.317.179.442.107.3.2.564.279.8.427,1.237.531,1.63.531,1.63s-.159-.809-.453-2.057c-.124-.528-.279-1.148-.45-1.808a47.991,47.991,0,0,0-2.99-8.586c3.343-17.4,14.1-40.18,25.7-52.479.99-1.049,1.985-2.031,2.981-2.918l.016-.026H42.971A10.122,10.122,0,0,0,32.88,43.858V135.18a10.121,10.121,0,0,0,10.091,10.091H97.512c0-.07,0-.147,0-.218A123.137,123.137,0,0,1,97.218,130.164Z" />
            <path class="b2b1e963-35c4-42b5-8a4e-62aaccbb095d"
                d="M94.445,115.512a28.334,28.334,0,0,0-2.321-6.52c-.429-.726.046-3.709,1.243-8.126a89.814,89.814,0,0,1,4.246,8.051c.667,1.885.808,2.425.808,2.425s-1.62-8.334-4.277-13.2c.582-1.966,1.278-4.139,2.065-6.462.921,1.616,3.013,5.326,3.769,7.084.07.164.133.317.179.442.107.3.2.564.279.8.426,1.237.53,1.63.53,1.63s-.158-.809-.452-2.057c-.124-.528-.279-1.148-.451-1.808a47.907,47.907,0,0,0-2.989-8.586c3.343-17.4,14.105-40.18,25.7-52.479h-79.8a7.156,7.156,0,0,0-7.147,7.148v84.66c16.462-6.319,40.416-11.831,58.733-12.561C94.52,115.809,94.483,115.659,94.445,115.512Z" />
        </g>
</svg>