<svg role="img" viewBox="0 0 185 185" xmlns="http://www.w3.org/2000/svg">
  <!-- Created by github.com/AlexTamayo -->
  <title>Substance Designer</title>
  <path fill="#e6e7e8"
    d="M151.075,0H32.51C14.534,0,0,14.907,0,33.345v116.9c0,18.438,14.534,33.345,32.51,33.345H151.075c17.977,0,32.51-14.907,32.51-33.345V33.345C183.585,14.907,169.052,0,151.075,0ZM96,104.259a35.23,35.23,0,0,1-14.663,16.709,42.39,42.39,0,0,1-21.744,6.325c-8.017.145-16.04-.009-24.06-.066-1.977-.014-2.034-.131-2.034-2.1,0-12.153,0-60.906,0-73.129,0-1.664.07-1.811,1.737-1.865,3.955-.13,7.912-.251,11.869-.26,5.241-.012,10.491-.087,15.721.182a43.677,43.677,0,0,1,17.448,4.4,32.249,32.249,0,0,1,17.65,22.111A43.673,43.673,0,0,1,96,104.259Zm47.191,19.4a24.647,24.647,0,0,1-11.692,4.308,47.732,47.732,0,0,1-18.377-1.261,40.179,40.179,0,0,1-3.793-1.436,1.867,1.867,0,0,1-1.3-2.005c.056-1.943.017-3.889.017-5.834,0-2.014-.011-4.028,0-6.042.008-1.158.294-1.312,1.3-.73A33.158,33.158,0,0,0,128.451,115a10.826,10.826,0,0,0,3.968-1.091,3.054,3.054,0,0,0,.8-5.187,12,12,0,0,0-3.329-2.255c-2.969-1.347-6.066-2.416-9.021-3.792a26.623,26.623,0,0,1-9.341-6.48,16.723,16.723,0,0,1,.863-22.306,21.365,21.365,0,0,1,12.878-6.011,44.4,44.4,0,0,1,18.074,1.106c3.925,1.127,3.221.869,3.262,4.275.037,3.125.015,6.251.005,9.376,0,1.409-.338,1.587-1.627,1a32.168,32.168,0,0,0-18.157-2.814,6,6,0,0,0-1.971.621,3.235,3.235,0,0,0-.868,5.261,7.629,7.629,0,0,0,2.223,1.675c3.218,1.467,6.531,2.729,9.72,4.252A61.808,61.808,0,0,1,143.3,96.7C152.749,102.919,151.971,117.4,143.192,123.658Z" />
  <path fill="#e6e7e8"
    d="M65.135,64.769c-4.664-1.053-9.376-.922-14.1-.654-1.359.077-1.37.076-1.37,1.463,0,7.673,0,31.77,0,36.145,0,3.437.005,6.875-.006,10.312,0,.622.081,1.082.867,1.113,4.3.171,8.6.493,12.87-.385,6.576-1.35,11.853-4.555,15.35-10.437a27.983,27.983,0,0,0,3.621-13.741,26.622,26.622,0,0,0-2.233-12.392C77.126,69.807,71.883,66.294,65.135,64.769Z" />
</svg>