<svg role="img" viewBox="0 0 185 185" xmlns="http://www.w3.org/2000/svg">
    <title>Tauri</title>
    <!-- Created by github.com/AlexTamayo -->
    <defs>
        <style>
            .aa612064-7827-4d5d-9233-debc35caff92 {
                fill: #e6e7e8;
            }
        </style>
    </defs>
    <g id="b6d4008f-756b-4840-a8b2-2fde8087e801" data-name="Layer 1">
        <path class="aa612064-7827-4d5d-9233-debc35caff92"
            d="M151.075,0H32.51C14.534,0,0,14.907,0,33.345v116.9c0,18.438,14.534,33.345,32.51,33.345H151.075c17.976,0,32.51-14.907,32.51-33.345V33.345C183.585,14.907,169.051,0,151.075,0ZM120.211,144.378A51.905,51.905,0,1,1,52.059,67.736h0a52.184,52.184,0,0,1,18.089-7.294A36.113,36.113,0,0,0,67.908,73a36.564,36.564,0,0,0,.209,3.908A36.5,36.5,0,0,0,46.966,96.262a36.214,36.214,0,0,0,5.951,39.032A36.659,36.659,0,0,0,110,132.381a60.9,60.9,0,0,0,19.956-5.8A51.678,51.678,0,0,1,120.211,144.378ZM94,111.2A13.623,13.623,0,1,1,80.381,97.645,13.588,13.588,0,0,1,94,111.2ZM89.669,72.386A13.624,13.624,0,1,1,103.293,85.94,13.589,13.589,0,0,1,89.669,72.386Zm61.05,21.256a51.827,51.827,0,0,1-19.192,22.206h0a52.157,52.157,0,0,1-17.946,7.266,36.463,36.463,0,0,0,1.735-16.387,36.514,36.514,0,0,0,21.3-19.4,36.221,36.221,0,0,0-5.95-39.032,36.661,36.661,0,0,0-57.079,2.9,60.917,60.917,0,0,0-19.946,5.765A51.849,51.849,0,0,1,87.869,22.964,52.187,52.187,0,0,1,142.251,38.1a51.547,51.547,0,0,1,8.468,55.545Z" />
    </g>
</svg>