<svg role="img" viewBox="0 0 24 24" xmlns="http://www.w3.org/2000/svg">
  <!-- Created by github.com/AlexTamayo -->
  <title>Three.Js</title>
  <polygon fill="#e6e7e8" points="9.503 8.345 8.842 5.665 6.852 7.582 9.503 8.345" />
  <polygon fill="#e6e7e8" points="6.544 8.416 7.22 11.152 9.258 9.193 6.544 8.416" />
  <polygon fill="#e6e7e8" points="5.516 4.255 6.191 6.993 8.225 5.034 5.516 4.255" />
  <polygon fill="#e6e7e8" points="7.832 11.788 10.547 12.569 9.871 9.827 7.832 11.788" />
  <polygon fill="#e6e7e8" points="13.611 9.518 12.956 6.857 10.976 8.762 13.611 9.518" />
  <polygon fill="#e6e7e8" points="16.464 7.407 13.811 6.644 14.472 9.327 16.464 7.407" />
  <polygon fill="#e6e7e8" points="7.587 12.635 8.249 15.315 10.236 13.4 7.587 12.635" />
  <polygon fill="#e6e7e8" points="12.341 6.221 9.699 5.46 10.358 8.131 12.341 6.221" />
  <polygon fill="#e6e7e8" points="11.386 12.288 13.379 10.37 10.725 9.607 11.386 12.288" />
  <polygon fill="#e6e7e8" points="18.612 10.563 20.641 8.61 17.939 7.832 18.612 10.563" />
  <polygon fill="#e6e7e8" points="15.091 9.956 17.741 10.716 17.081 8.039 15.091 9.956" />
  <polygon fill="#e6e7e8" points="15.511 13.543 17.551 11.582 14.836 10.803 15.511 13.543" />
  <polygon fill="#e6e7e8" points="9.289 19.528 11.366 17.531 8.599 16.74 9.289 19.528" />
  <path fill="#e6e7e8"
    d="M19.75,0H4.25A4.3,4.3,0,0,0,0,4.359V19.641A4.3,4.3,0,0,0,4.25,24h15.5A4.3,4.3,0,0,0,24,19.641V4.359A4.3,4.3,0,0,0,19.75,0Zm2.039,8.73L9.367,20.683a.484.484,0,0,1-.329.138.432.432,0,0,1-.426-.356c-.178-.716-.355-1.435-.532-2.152L4.488,3.767A.447.447,0,0,1,4.765,3.2l.212-.02L21.605,7.97a.451.451,0,0,1,.323.32A.455.455,0,0,1,21.789,8.73Z" />
  <polygon fill="#e6e7e8" points="8.907 15.907 11.557 16.669 10.897 13.99 8.907 15.907" />
  <polygon fill="#e6e7e8" points="12.428 16.509 14.409 14.604 11.768 13.84 12.428 16.509" />
  <polygon fill="#e6e7e8" points="11.945 12.974 14.655 13.754 13.98 11.014 11.945 12.974" />
</svg>