<svg role="img" viewBox="0 0 185 185" xmlns="http://www.w3.org/2000/svg">
    <title>Typescript</title>
    <!-- Created by github.com/AlexTamayo -->
    <defs>
        <style>
            .ab058b51-f1ce-44d8-af1f-0195f5dad998 {
                fill: #e6e7e8;
            }
        </style>
    </defs>
    <g id="be0ae988-31df-4edb-aca5-078a346b50b0" data-name="Layer 1">
        <path class="ab058b51-f1ce-44d8-af1f-0195f5dad998"
            d="M151.075,0H32.51C14.534,0,0,14.907,0,33.345v116.9c0,18.438,14.534,33.345,32.51,33.345H151.075c17.976,0,32.51-14.907,32.51-33.345V33.345C183.585,14.907,169.051,0,151.075,0ZM110.848,103.632H90.109v59.312H73.681V103.632H53.044V90.311h57.8Zm54.059,50.325a18.752,18.752,0,0,1-6.292,6.686,27.356,27.356,0,0,1-9.247,3.673,53.731,53.731,0,0,1-11.132,1.114,62.282,62.282,0,0,1-11.438-1.013,34.682,34.682,0,0,1-9.4-3.039V145.169a31.42,31.42,0,0,0,20.124,7.395,23.427,23.427,0,0,0,5.426-.557,12.764,12.764,0,0,0,3.873-1.545,6.751,6.751,0,0,0,2.317-2.33,5.784,5.784,0,0,0,.765-2.913,6.273,6.273,0,0,0-1.223-3.8,13.132,13.132,0,0,0-3.337-3.09,34.949,34.949,0,0,0-5.018-2.735q-2.9-1.317-6.267-2.685-8.559-3.544-12.762-8.661a18.842,18.842,0,0,1-4.2-12.36,18.719,18.719,0,0,1,8.534-16.462,28.072,28.072,0,0,1,9.145-3.875,47.221,47.221,0,0,1,11.005-1.241A66.573,66.573,0,0,1,155.89,91a39.894,39.894,0,0,1,8.126,2.1v15.145a24.577,24.577,0,0,0-4-2.228,31.742,31.742,0,0,0-4.458-1.6,34.225,34.225,0,0,0-4.56-.937,32.381,32.381,0,0,0-4.3-.3,22.618,22.618,0,0,0-5.095.531,13.1,13.1,0,0,0-3.871,1.5,7.44,7.44,0,0,0-2.446,2.3,5.442,5.442,0,0,0-.867,3.013,5.729,5.729,0,0,0,.969,3.268,11.065,11.065,0,0,0,2.751,2.735,29.318,29.318,0,0,0,4.33,2.533q2.549,1.24,5.757,2.558a64.263,64.263,0,0,1,7.872,3.875,27.957,27.957,0,0,1,5.987,4.634,18.057,18.057,0,0,1,3.821,5.9,23.443,23.443,0,0,1-.994,17.931Z" />
    </g>
</svg>