<svg role="img" viewBox="0 0 24 24" xmlns="http://www.w3.org/2000/svg">
  <!-- Created by Alex Tamayo -->
  <title>Unity3D</title>
  <path fill="#e6e7e8"
    d="M18.363,9.481c-.345-1.184-.691-2.368-1.045-3.58-.047.071-.082.121-.113.174q-1.65,2.76-3.3,5.519a.24.24,0,0,0,0,.289q1.655,2.757,3.3,5.52c.031.051.064.1.11.173.567-1.941,1.124-3.849,1.678-5.758a.4.4,0,0,0-.014-.2Q18.675,10.548,18.363,9.481Z" />
  <path fill="#e6e7e8"
    d="M12.266,12.837a.242.242,0,0,0-.252-.117l-6.593,0c-.053,0-.106.007-.183.013.038.043.057.067.078.088q2.1,2.063,4.2,4.124a.436.436,0,0,0,.2.1q2.375.609,4.749,1.211c.39.1.782.2,1.2.3-.034-.066-.05-.1-.069-.13Q13.933,15.633,12.266,12.837Z" />
  <path fill="#e6e7e8"
    d="M12.026,10.676a.258.258,0,0,0,.255-.147q1.644-2.764,3.3-5.524c.027-.047.05-.1.085-.165-.059.013-.094.019-.13.028Q12.614,5.609,9.7,6.352a.511.511,0,0,0-.219.134Q7.835,8.078,6.2,9.673c-.335.325-.674.646-1.044,1h.184Q8.681,10.673,12.026,10.676Z" />
  <path fill="#e6e7e8"
    d="M19.75,0H4.25A4.3,4.3,0,0,0,0,4.359V19.641A4.3,4.3,0,0,0,4.25,24h15.5A4.3,4.3,0,0,0,24,19.641V4.359A4.3,4.3,0,0,0,19.75,0Zm.9,9.754a1.228,1.228,0,0,0-.1.128c-.344.571-.683,1.144-1.032,1.712a.248.248,0,0,0,0,.292c.33.578.658,1.158.975,1.743a.446.446,0,0,1,.038.3q-.837,3.09-1.686,6.177c-.126.464-.243.93-.364,1.395h-.114a.687.687,0,0,0-.1-.044q-3.8-.972-7.6-1.94a.383.383,0,0,1-.269-.207c-.316-.579-.645-1.15-.962-1.729a.244.244,0,0,0-.253-.147c-.654.006-1.309,0-1.963.006a.5.5,0,0,1-.385-.154q-2.74-2.676-5.491-5.343c-.067-.065-.146-.118-.223-.179.053-.058.072-.082.094-.1Q4.041,8.9,6.88,6.148a.428.428,0,0,1,.266-.1c.679-.009,1.359-.007,2.039,0a.246.246,0,0,0,.242-.137c.341-.579.693-1.152,1.033-1.733a.421.421,0,0,1,.287-.214q3.278-.833,6.555-1.672c.408-.1.817-.206,1.229-.31.023.066.041.113.054.162q.862,3.153,1.724,6.306c.107.388.227.772.342,1.158Z" />
</svg>