<svg role="img" viewBox="0 0 24 24" xmlns="http://www.w3.org/2000/svg">
  <!-- Created by github.com/AlexTamayo -->
  <title>Unrealengine</title>
  <path fill="#e6e7e8"
    d="M12,3.013A8.987,8.987,0,1,0,20.987,12,8.987,8.987,0,0,0,12,3.013Zm2.4,14.195-.931-1.045a1.022,1.022,0,0,1-.066.082c-.469.472-.94.942-1.406,1.416a.217.217,0,0,1-.177.07,5.783,5.783,0,0,1-2.113-.481,5.661,5.661,0,0,1-2.12-1.606c-.059-.071-.114-.143-.171-.215l0-.01.366.072a.74.74,0,0,0,.331-.011.418.418,0,0,0,.316-.389c0-.06.007-.12.007-.179q0-2.058,0-4.116A.7.7,0,0,0,7.26,10.25a2.277,2.277,0,0,0-.457.585,6.327,6.327,0,0,0-.5,1.117L6.284,12a5.731,5.731,0,0,1,.34-1.985A5.646,5.646,0,0,1,7.647,8.277,5.717,5.717,0,0,1,9.216,7a5.785,5.785,0,0,1,1.91-.658c-.126.091-.249.169-.36.26a2.225,2.225,0,0,0-.789,1.158,1.422,1.422,0,0,0,.031.868.565.565,0,0,0,.152.223.406.406,0,0,0,.474.032c.009,0,.017-.01.026-.015l.036-.02v.073q0,2.721,0,5.443a.584.584,0,0,0,.169.421.83.83,0,0,0,.867.254,2.553,2.553,0,0,0,.852-.429c.083-.059.163-.121.241-.186a.109.109,0,0,0,.036-.072c0-1.524,0-3.047,0-4.571a1.475,1.475,0,0,0-.337-.875,1.312,1.312,0,0,0-.352-.332,1.552,1.552,0,0,1,1.14.264,5.757,5.757,0,0,1,3.5-1.969c-.1.1-.2.18-.29.27a4.985,4.985,0,0,0-1.068,1.482,3.255,3.255,0,0,0-.306,1.391q.018,2.208.033,4.415a.105.105,0,0,0,.045.089.7.7,0,0,0,.73.105,2.341,2.341,0,0,0,.675-.4,9.707,9.707,0,0,0,.894-.827.212.212,0,0,0,.021-.036l.024.022A5.763,5.763,0,0,1,14.4,17.208Z" />
  <path fill="#e6e7e8"
    d="M19.75,0H4.25A4.3,4.3,0,0,0,0,4.359V19.641A4.3,4.3,0,0,0,4.25,24h15.5A4.3,4.3,0,0,0,24,19.641V4.359A4.3,4.3,0,0,0,19.75,0ZM12,22.592A10.592,10.592,0,1,1,22.592,12,10.592,10.592,0,0,1,12,22.592Z" />
</svg>