<svg role="img" viewBox="0 0 24 24" xmlns="http://www.w3.org/2000/svg">
  <!-- Created by github.com/AlexTamayo -->
  <title>Vue.Js</title>
  <path fill="#a7a9ac"
    d="M17.97,4.135h3.941c.033,0,.082-.017.066.049l0-.007,0,0c-.033.011-.04.044-.054.069q-4.077,7.064-8.153,14.127-.861,1.491-1.72,2.983c-.013.022-.052.042-.026.079h-.033c.02-.033-.012-.052-.024-.073Q7.488,13.6,3.014,5.854q-.466-.808-.934-1.616c-.012-.021-.01-.065-.057-.053-.015-.057.022-.05.058-.05q1.668,0,3.334,0h.616c-.012.039.017.062.033.09l3.574,6.2,2.313,4.007c.048.084.049.083.1,0l.008-.015Q15,9.316,17.939,4.218C17.954,4.192,17.98,4.17,17.97,4.135Z" />
  <path fill="#e6e7e8"
    d="M19.75,0H4.25A4.3,4.3,0,0,0,0,4.359V19.641A4.3,4.3,0,0,0,4.25,24h15.5A4.3,4.3,0,0,0,24,19.641V4.359A4.3,4.3,0,0,0,19.75,0Zm2.224,4.178,0,0c-.033.011-.04.044-.054.069q-4.077,7.064-8.153,14.127-.861,1.491-1.72,2.983c-.012.022-.052.042-.026.079h-.033c.02-.033-.012-.052-.024-.073Q7.488,13.6,3.014,5.854q-.466-.808-.934-1.616c-.012-.021-.01-.065-.057-.053-.015-.057.022-.05.059-.05H9.706a.206.206,0,0,0,.038.082l.324.562q.942,1.629,1.882,3.26c.049.085.051.085.1,0L12.071,8q.893-1.547,1.786-3.094c.147-.257.3-.509.438-.773h7.616c.033,0,.082-.017.066.049Z" />
</svg>