<svg role="img" viewBox="0 0 185 185" xmlns="http://www.w3.org/2000/svg">
  <!-- Created by github.com/AlexTamayo -->
  <title>Zbrush</title>
  <path fill="#e6e7e8"
    d="M69.643,114.279a88.626,88.626,0,0,0-25.095,8.537c-3.974,2.077-7.832,4.336-10.928,7.665a20.739,20.739,0,0,0-4.716,8.045c-.775,2.506.377,3.838,2.986,3.581.058,0,.115-.018.172-.027a24.559,24.559,0,0,0,7.816-2.814A97.357,97.357,0,0,0,64.993,119.7c1.64-1.759,3.284-3.514,5.02-5.371A2.131,2.131,0,0,0,69.643,114.279Z" />
  <path fill="#e6e7e8"
    d="M131.78,68.423a11.229,11.229,0,0,0,5.934-2,5.673,5.673,0,0,0,1.345-1.444.953.953,0,0,0-.487-1.556,9.961,9.961,0,0,0-2.663-.681c-3.712-.206-7.064,1.043-10.274,2.761-.9.483-1.789,1-2.914,1.622A26.069,26.069,0,0,0,131.78,68.423Z" />
  <path fill="#e6e7e8"
    d="M151.075,0H32.51C14.534,0,0,14.907,0,33.345v116.9c0,18.438,14.534,33.345,32.51,33.345H151.075c17.977,0,32.51-14.907,32.51-33.345V33.345C183.585,14.907,169.052,0,151.075,0ZM94.3,38.2c1.621-3.9,4.2-6.858,8.352-8.188a6.2,6.2,0,0,1,1.954-.447,3.96,3.96,0,0,1,1.045.169c7.591,2.1,10.74,8,12.666,14.907a6.958,6.958,0,0,1,.05,2.6,2.933,2.933,0,0,1-2.161,2.687,56.788,56.788,0,0,1-5.6,1.183,27.9,27.9,0,0,1-7.9.289,10.541,10.541,0,0,1-8.986-7.43A8.576,8.576,0,0,1,94.3,38.2ZM159.826,153.71a33.752,33.752,0,0,1-6.118-3.277c-3.7-2.611-7.295-5.39-10.817-8.244a25.715,25.715,0,0,1-3.636-3.968,4.292,4.292,0,0,1-.659-3.977c.243-.9.506-1.786.739-2.685a5.388,5.388,0,0,0-.66-4.105,15.335,15.335,0,0,0-7.044-6.16A61.4,61.4,0,0,0,114.4,115.68c-5.732-.926-11.485-1.755-17.255-2.4a94.484,94.484,0,0,0-17.679-.2,1.611,1.611,0,0,0-1.053.458c-3.515,4.447-7.77,8.175-11.737,12.185A90.573,90.573,0,0,1,42.721,142.8a44.3,44.3,0,0,1-14.315,4.708,27.2,27.2,0,0,1-5.207.106c-1.969-.129-2.609-1.12-2.373-3.13a15.636,15.636,0,0,1,2.518-6.7,65.591,65.591,0,0,1,11.525-13.027c8.911-8.031,19.321-13.656,29.992-18.877A80.486,80.486,0,0,1,80.488,100.3a2.772,2.772,0,0,0,1.661-1.117,139.458,139.458,0,0,1,20.017-21.818,4.613,4.613,0,0,1,.529-.334c-1.868-1.21-3.565-2.323-5.275-3.417-3.573-2.283-7.086-4.671-10.749-6.8A27.36,27.36,0,0,0,76.3,63.184a12.163,12.163,0,0,0-5.494.591,32.66,32.66,0,0,0-12.553,7.271,9.947,9.947,0,0,0-2.823,6.747,9.057,9.057,0,0,0,0,1.571,3.488,3.488,0,0,1-1.845,3.589,56.025,56.025,0,0,1-6.744,3.391c-2.683,1.062-5.493,1.805-8.26,2.647a1.719,1.719,0,0,1-2.006-.431,1.769,1.769,0,0,1,.136-2.131c1.768-2.691,3.456-5.451,5.428-7.988a63.29,63.29,0,0,1,15.625-14.7,48.039,48.039,0,0,1,17.7-7.426A43.407,43.407,0,0,1,96.665,57.61c6.055,1.98,11.972,4.385,17.95,6.605.948.353,1.925,1.073,2.826.984.866-.085,1.652-1,2.471-1.549a45.152,45.152,0,0,1,8.449-4.839,12.87,12.87,0,0,1,9.69-.071c3.934,1.518,5.481,5.2,3.609,8.989a20.287,20.287,0,0,1-3.176,4.546,42.081,42.081,0,0,1-8.809,7.49,19.222,19.222,0,0,1-19.8,1.038c-.78-.38-1.567-.749-2.334-1.116C101.159,85.475,95.772,92,90.379,98.63a1.308,1.308,0,0,0,.343.1c9.183-.293,17.842,1.983,26.226,5.463a85.479,85.479,0,0,1,25.837,16.569,81.078,81.078,0,0,1,18.98,27.075,13.766,13.766,0,0,1,1,3.58C163.063,153.581,161.847,154.581,159.826,153.71Z" />
</svg>